<?xml version="1.0" encoding="utf-8"?>
<!-- Generator: Adobe Illustrator 16.0.0, SVG Export Plug-In . SVG Version: 6.00 Build 0)  -->
<!DOCTYPE svg PUBLIC "-//W3C//DTD SVG 1.1//EN" "http://www.w3.org/Graphics/SVG/1.1/DTD/svg11.dtd">
<svg version="1.1" id="Capa_1" xmlns="http://www.w3.org/2000/svg" xmlns:xlink="http://www.w3.org/1999/xlink" x="0px" y="0px"
	 width="425.2px" height="425.2px" viewBox="0 0 425.2 425.2" enable-background="new 0 0 425.2 425.2" xml:space="preserve">
<g>
	<path fill-rule="evenodd" clip-rule="evenodd" stroke="#000000" stroke-width="2" stroke-miterlimit="10" d="M421,213.376
		c0,114.759-93.035,207.806-207.801,207.806c-114.772,0-207.805-93.047-207.805-207.806C5.394,98.604,98.426,5.572,213.199,5.572
		C327.965,5.572,421,98.604,421,213.376z"/>
	<g>
		<linearGradient id="SVGID_1_" gradientUnits="userSpaceOnUse" x1="97.0117" y1="266.4648" x2="329.1455" y2="266.4648">
			<stop  offset="0" style="stop-color:#FFEF26"/>
			<stop  offset="0.0047" style="stop-color:#FBEF26"/>
			<stop  offset="0.0569" style="stop-color:#D7F328"/>
			<stop  offset="0.1139" style="stop-color:#B8F62A"/>
			<stop  offset="0.1785" style="stop-color:#9CF92B"/>
			<stop  offset="0.2515" style="stop-color:#86FB2C"/>
			<stop  offset="0.3366" style="stop-color:#75FD2D"/>
			<stop  offset="0.442" style="stop-color:#6AFE2E"/>
			<stop  offset="0.5898" style="stop-color:#63FF2E"/>
			<stop  offset="1" style="stop-color:#61FF2E"/>
		</linearGradient>
		<path fill-rule="evenodd" clip-rule="evenodd" fill="url(#SVGID_1_)" d="M97.023,229.596
			c-0.058-11.045,3.669-19.949,11.621-27.133c4.357-3.941,8.372-8.276,12.572-12.385c4.025-3.942,5.512-4.022,9.981-0.736
			c0.328,0.249,0.649,0.474,0.973,0.722c7.829,5.938,7.975,8.54,1.001,15.461c-3.989,3.948-8.207,7.679-11.719,12.093
			c-6.965,8.773-6.801,16.351,1.017,24.255c14.575,14.739,29.311,29.325,44.02,43.934c10.918,10.85,21.884,21.618,32.831,32.436
			c1.143,1.13,2.258,2.273,3.416,3.39c7.643,7.314,13.611,7.445,21.195,0.028c9.953-9.706,19.716-19.635,29.544-29.472
			c15.035-15.052,30.065-30.091,45.062-45.179c2.357-2.354,4.686-4.779,6.74-7.396c5.406-6.891,5.434-13.514,0.251-20.589
			c-4.208-5.755-9.713-10.31-14.604-15.43c-4.659-4.86-4.699-6.412,0.015-11.286c7.733-8.007,8.746-8.037,16.63-0.365
			c4.206,4.109,8.428,8.219,12.176,12.764c13.204,16.074,12.498,35.92-2.097,50.732c-15.594,15.803-31.423,31.365-47.067,47.14
			c-10.559,10.621-20.974,21.376-31.429,32.106c-6.582,6.741-14.31,11.229-23.85,11.914c-10.583,0.749-19.234-3.469-26.615-10.799
			c-20.899-20.707-41.825-41.404-62.731-62.103c-5.985-5.924-12.047-11.781-17.908-17.837
			C100.881,248.45,96.769,239.693,97.023,229.596z"/>
		<linearGradient id="SVGID_2_" gradientUnits="userSpaceOnUse" x1="274.5928" y1="248.5801" x2="403.4141" y2="248.5801">
			<stop  offset="0.0052" style="stop-color:#739FE3"/>
			<stop  offset="0.0921" style="stop-color:#5F8FE3"/>
			<stop  offset="0.2636" style="stop-color:#3D74E3"/>
			<stop  offset="0.4389" style="stop-color:#225EE3"/>
			<stop  offset="0.617" style="stop-color:#0F4FE3"/>
			<stop  offset="0.8" style="stop-color:#0446E3"/>
			<stop  offset="0.9948" style="stop-color:#0043E3"/>
		</linearGradient>
		<path fill-rule="evenodd" clip-rule="evenodd" fill="url(#SVGID_2_)" d="M403.12,245.436c0,1.084-0.178,2.259-0.661,3.278
			c-0.533,1.909-0.947,3.285-1.727,4.771c-2.919,8.415-8.42,15.089-14.62,21.29c-17.297,17.317-34.527,34.724-51.953,51.912
			c-10.851,10.73-23.631,14.498-38.179,8.291c-8.467-3.587-14.256-10.684-20.226-17.298c-1.07-1.144-1.246-2.629-1.132-4.188
			c0.238-3.273,8.053-11.208,11.396-11.506c2.808-0.176,4.412,1.734,5.85,3.702c2.862,3.766,5.841,7.277,9.901,9.85
			c6.622,4.108,11.452,3.745,16.876-1.684c19.209-19.213,38.422-38.426,57.565-57.682c8.478-8.591,8.773-17.66,0.54-26.607
			c-14.612-15.993-29.88-31.321-45.995-45.806c-0.052-0.064-0.052-0.064-0.052-0.064c-3.584-11.389-2.39-19.389-0.303-24.51
			c1.196,0.473,2.324,1.063,3.521,1.668c4.769,2.44,8.761,6.019,12.588,9.836c13.781,13.777,27.614,27.619,41.448,41.346
			c6.154,6.024,10.926,12.765,13.192,21.159l1.669,5.923C403.18,241.332,403.776,242.937,403.12,245.436z"/>
		<linearGradient id="SVGID_3_" gradientUnits="userSpaceOnUse" x1="89.8794" y1="116.3789" x2="154.8394" y2="116.3789">
			<stop  offset="0" style="stop-color:#FFEF26"/>
			<stop  offset="0.0178" style="stop-color:#FFEA21"/>
			<stop  offset="0.102" style="stop-color:#FED70F"/>
			<stop  offset="0.1886" style="stop-color:#FDCC04"/>
			<stop  offset="0.2809" style="stop-color:#FDC800"/>
			<stop  offset="0.6685" style="stop-color:#F18F34"/>
			<stop  offset="0.8876" style="stop-color:#E95F32"/>
			<stop  offset="1" style="stop-color:#E3312D"/>
		</linearGradient>
		<path fill-rule="evenodd" clip-rule="evenodd" fill="url(#SVGID_3_)" d="M122.269,83.894c-18.134,0-32.33,14.208-32.389,32.269
			c-0.062,18.2,14.616,32.924,32.513,32.698c17.894-0.182,32.447-14.796,32.447-32.582
			C154.839,98.459,140.225,83.894,122.269,83.894z M122.393,129.285c-7.577,0.066-13.25-5.596-13.187-13.122
			c0.062-7.147,5.846-12.874,13.063-12.874c7.22,0,13.005,5.77,13.005,12.991C135.274,123.624,129.664,129.285,122.393,129.285z"/>
		<path fill-rule="evenodd" clip-rule="evenodd" fill="#00FF33" d="M211.687,46.555c-19.501,0-34.833,15.264-34.892,34.774
			c-0.062,19.569,15.749,35.372,35.017,35.198c19.265-0.248,34.896-15.926,34.956-35.132
			C246.768,62.249,230.962,46.555,211.687,46.555z M211.812,95.464c-8.114,0-14.259-6.069-14.197-14.135
			c0.062-7.759,6.323-13.959,14.072-13.894c7.754,0,13.962,6.266,13.962,14.024C225.649,89.33,219.679,95.414,211.812,95.464z"/>
		<linearGradient id="SVGID_4_" gradientUnits="userSpaceOnUse" x1="270.0938" y1="116.4111" x2="335.1064" y2="116.4111">
			<stop  offset="0" style="stop-color:#0063E4"/>
			<stop  offset="0.9948" style="stop-color:#0063E3"/>
		</linearGradient>
		<path fill-rule="evenodd" clip-rule="evenodd" fill="url(#SVGID_4_)" d="M302.603,83.894
			c-17.953,0.066-32.509,14.565-32.509,32.386c0,17.785,14.793,32.648,32.451,32.648c18.072,0,32.625-14.681,32.562-32.765
			C335.058,98.146,320.675,83.829,302.603,83.894z M302.84,129.285c-7.394,0.131-13.36-5.727-13.36-13.005
			c0-7.023,5.847-12.947,13.004-12.991c7.339-0.117,13.361,5.77,13.308,13.056C315.791,123.449,310.006,129.241,302.84,129.285z"/>
		<path fill-rule="evenodd" clip-rule="evenodd" fill="#00FF33" d="M67.167,156.504"/>
		<path fill="none" d="M238.474,151.252c-7.097-7.039-15.687-10.507-25.587-10.689c-9.544-0.051-17.899,2.995-24.695,9.734
			c-8.175,8.102-16.229,16.35-24.462,24.335c-2.208,2.141-1.968,3.453,0.121,5.544c13.128,12.881,26.126,26.002,39.256,38.949
			c7.391,7.214,11.745,7.214,19.146,0c13.244-12.946,26.427-26.067,39.728-39.015c2.029-2.025,2.447-3.271,0.177-5.478
			C254.162,166.938,246.35,159.07,238.474,151.252z"/>
		<path fill="#00FF33" d="M147.27,162.523c-0.288,8.822,1.719,21.208,9.563,37.192c-4.247-14.315-3.427-33.318-2.658-42.542
			c-0.995,0.977-1.968,1.975-2.973,2.958C149.888,161.378,148.639,162.274,147.27,162.523z"/>
		<linearGradient id="SVGID_5_" gradientUnits="userSpaceOnUse" x1="22.8506" y1="200.8633" x2="157.9398" y2="200.8633">
			<stop  offset="0.0105" style="stop-color:#FFFFFF"/>
			<stop  offset="0.0405" style="stop-color:#FFFAE7"/>
			<stop  offset="0.1065" style="stop-color:#FFF1B7"/>
			<stop  offset="0.178" style="stop-color:#FFE88B"/>
			<stop  offset="0.2534" style="stop-color:#FFE066"/>
			<stop  offset="0.3338" style="stop-color:#FFDA46"/>
			<stop  offset="0.4207" style="stop-color:#FFD52C"/>
			<stop  offset="0.5166" style="stop-color:#FFD119"/>
			<stop  offset="0.6263" style="stop-color:#FFCE0B"/>
			<stop  offset="0.7617" style="stop-color:#FFCC02"/>
			<stop  offset="1" style="stop-color:#FFCC00"/>
		</linearGradient>
		<path fill="url(#SVGID_5_)" d="M157.361,201.42c0.197,0.197,0.389,0.394,0.579,0.591c-0.401-0.786-0.729-1.522-1.108-2.295
			C157.007,200.292,157.171,200.861,157.361,201.42z"/>
		<path opacity="0.4" d="M147.27,162.523c-1.14,0.291-2.448,0.05-3.884-0.896c-4.36-2.82-8.928-4.699-13.642-5.879
			c-0.859,7.774,10.484,24.924,20.738,38.796c2.288,2.295,4.593,4.568,6.879,6.876c-0.19-0.559-0.354-1.128-0.529-1.705
			C148.989,183.731,146.982,171.346,147.27,162.523z"/>
		<linearGradient id="SVGID_6_" gradientUnits="userSpaceOnUse" x1="147.2432" y1="182.4531" x2="330.7041" y2="182.4531">
			<stop  offset="0" style="stop-color:#FFEF26"/>
			<stop  offset="0.0047" style="stop-color:#FBEF26"/>
			<stop  offset="0.0569" style="stop-color:#D7F328"/>
			<stop  offset="0.1139" style="stop-color:#B8F62A"/>
			<stop  offset="0.1785" style="stop-color:#9CF92B"/>
			<stop  offset="0.2515" style="stop-color:#86FB2C"/>
			<stop  offset="0.3366" style="stop-color:#75FD2D"/>
			<stop  offset="0.442" style="stop-color:#6AFE2E"/>
			<stop  offset="0.5898" style="stop-color:#63FF2E"/>
			<stop  offset="1" style="stop-color:#61FF2E"/>
		</linearGradient>
		<path fill="url(#SVGID_6_)" d="M330.401,159.186c-15.332-6.988-30.841-7.352-46.171,1.668c-5.069,2.98-5.43,3.221-9.546-1.261
			c-7.516-8.167-15.445-15.983-23.804-23.313c-19.442-17.122-49.212-23.453-74.625-0.955c-7.774,6.921-14.779,14.537-22.082,21.85
			c-0.995,0.977-1.968,1.975-2.973,2.958c-1.313,1.246-2.562,2.142-3.931,2.391c-0.288,8.822,1.719,21.208,9.563,37.192
			c0.379,0.773,0.707,1.509,1.108,2.295c5.734,5.675,11.337,11.387,17.064,17.064c5.908,5.843,11.631,11.86,17.892,17.296
			c12.889,11.097,29.417,10.019,41.46-1.916c17.122-16.889,34.367-33.689,51.721-50.396c13.364-12.83,29.714-13.777,42.532-2.272
			c0.722,0.649,1.377,1.252,2.095,1.91C327.12,172.307,328.314,164.307,330.401,159.186z M261.979,180.11
			c-13.301,12.948-26.483,26.069-39.728,39.015c-7.401,7.214-11.755,7.214-19.146,0c-13.13-12.946-26.128-26.067-39.256-38.949
			c-2.089-2.091-2.328-3.403-0.121-5.544c8.234-7.986,16.287-16.234,24.462-24.335c6.796-6.739,15.151-9.785,24.695-9.734
			c9.901,0.182,18.491,3.65,25.587,10.689c7.876,7.818,15.688,15.685,23.682,23.38C264.426,176.839,264.008,178.085,261.979,180.11z
			"/>
		<linearGradient id="SVGID_7_" gradientUnits="userSpaceOnUse" x1="22.9839" y1="246.1719" x2="164.1232" y2="246.1719">
			<stop  offset="0" style="stop-color:#FFEF26"/>
			<stop  offset="0.0178" style="stop-color:#FFEA21"/>
			<stop  offset="0.102" style="stop-color:#FED70F"/>
			<stop  offset="0.1886" style="stop-color:#FDCC04"/>
			<stop  offset="0.2809" style="stop-color:#FDC800"/>
			<stop  offset="0.6685" style="stop-color:#F18F34"/>
			<stop  offset="0.8876" style="stop-color:#E95F32"/>
			<stop  offset="1" style="stop-color:#E3312D"/>
		</linearGradient>
		<path fill="url(#SVGID_7_)" d="M150.482,194.544c-3.074-3.075-6.146-6.163-9.242-9.246c-8.652-8.525-18.735-13.282-31.201-10.484
			c-5.963,1.304-10.855,4.582-15.089,8.771c-14.855,14.609-29.648,29.341-44.385,44.195c-9.366,9.429-9.896,18.966-0.709,28.503
			c15.923,16.647,32.326,32.764,48.617,49.049c3.275,3.337,6.375,6.855,10.135,9.72c5.731,4.349,10.801,4.413,16.288-0.3
			c3.639-3.153,6.983-6.674,10.502-9.967c3.46-3.286,5.843-3.286,9.482-0.241c8.528,7.17,8.59,8.787,1.311,17.245
			c-5.005,5.858-10.437,11.098-17.839,13.91c-12.462,4.647-23.741,2.375-33.581-6.333c-13.482-11.861-25.471-25.229-38.177-37.879
			c-6.739-6.68-13.304-13.537-19.985-20.276c-5.129-5.07-8.947-10.979-11.457-17.726c-0.834-1.777-1.075-3.037-1.669-5.61
			c0-0.772-0.298-1.355-0.298-2.141c0-2.506-0.415-4.109-0.054-7.155c0-0.831,0.353-1.909,0.353-2.696
			c0.42-1.9,0.956-3.271,1.611-4.83c2.445-7.278,6.922-13.172,12.35-18.492c15.69-15.328,31.259-30.71,46.767-46.228
			c7.278-7.263,16.229-10.484,26.188-11.635c6.7-0.766,13.158-0.49,19.344,1.049C128.885,163.521,140.228,180.671,150.482,194.544z
			 M147.27,162.523c-1.14,0.291-2.448,0.05-3.884-0.896c-4.36-2.82-8.928-4.699-13.642-5.879
			c-0.859,7.774,10.484,24.924,20.738,38.796c2.288,2.295,4.593,4.568,6.879,6.876c-0.19-0.559-0.354-1.128-0.529-1.705
			C148.989,183.731,146.982,171.346,147.27,162.523z"/>
	</g>
</g>
</svg>
