<?xml version="1.0" encoding="utf-8"?>
<!-- Generator: Adobe Illustrator 16.0.0, SVG Export Plug-In . SVG Version: 6.00 Build 0)  -->
<!DOCTYPE svg PUBLIC "-//W3C//DTD SVG 1.1//EN" "http://www.w3.org/Graphics/SVG/1.1/DTD/svg11.dtd">
<svg version="1.1" id="Capa_1" xmlns="http://www.w3.org/2000/svg" xmlns:xlink="http://www.w3.org/1999/xlink" x="0px" y="0px"
	 width="425.2px" height="96.38px" viewBox="0 0 425.2 96.38" enable-background="new 0 0 425.2 96.38" xml:space="preserve">
<g>
	
		<circle fill-rule="evenodd" clip-rule="evenodd" stroke="#000000" stroke-width="2" stroke-miterlimit="10" cx="47.739" cy="49.269" r="44.852"/>
	<g>
		<linearGradient id="SVGID_1_" gradientUnits="userSpaceOnUse" x1="22.6611" y1="60.7246" x2="72.7656" y2="60.7246">
			<stop  offset="0" style="stop-color:#FFEF26"/>
			<stop  offset="0.0047" style="stop-color:#FBEF26"/>
			<stop  offset="0.0569" style="stop-color:#D7F328"/>
			<stop  offset="0.1139" style="stop-color:#B8F62A"/>
			<stop  offset="0.1785" style="stop-color:#9CF92B"/>
			<stop  offset="0.2515" style="stop-color:#86FB2C"/>
			<stop  offset="0.3366" style="stop-color:#75FD2D"/>
			<stop  offset="0.442" style="stop-color:#6AFE2E"/>
			<stop  offset="0.5898" style="stop-color:#63FF2E"/>
			<stop  offset="1" style="stop-color:#61FF2E"/>
		</linearGradient>
		<path fill-rule="evenodd" clip-rule="evenodd" fill="url(#SVGID_1_)" d="M22.664,52.768c-0.012-2.384,0.792-4.307,2.509-5.854
			c0.94-0.852,1.807-1.786,2.714-2.674c0.868-0.852,1.189-0.869,2.154-0.159c0.071,0.054,0.141,0.103,0.21,0.155
			c1.69,1.281,1.722,1.842,0.217,3.337c-0.862,0.853-1.771,1.656-2.53,2.61c-1.503,1.895-1.468,3.528,0.219,5.235
			c3.146,3.182,6.327,6.328,9.502,9.483c2.356,2.341,4.723,4.665,7.086,7.001c0.247,0.244,0.487,0.49,0.737,0.73
			c1.649,1.578,2.937,1.607,4.575,0.007c2.148-2.095,4.255-4.238,6.377-6.362c3.244-3.246,6.489-6.493,9.725-9.751
			c0.509-0.508,1.012-1.032,1.455-1.595c1.167-1.488,1.173-2.918,0.055-4.443c-0.908-1.244-2.096-2.227-3.152-3.331
			c-1.006-1.052-1.015-1.386,0.003-2.438c1.669-1.727,1.888-1.733,3.59-0.079c0.907,0.888,1.819,1.774,2.627,2.757
			c2.85,3.469,2.698,7.753-0.453,10.949c-3.365,3.41-6.782,6.77-10.159,10.175c-2.278,2.293-4.527,4.614-6.784,6.929
			c-1.42,1.456-3.088,2.425-5.147,2.571c-2.283,0.164-4.151-0.747-5.745-2.328c-4.511-4.47-9.027-8.937-13.54-13.405
			c-1.291-1.28-2.601-2.543-3.866-3.85C23.497,56.837,22.608,54.947,22.664,52.768z"/>
		<linearGradient id="SVGID_2_" gradientUnits="userSpaceOnUse" x1="60.9907" y1="56.8652" x2="88.7954" y2="56.8652">
			<stop  offset="0.0052" style="stop-color:#739FE3"/>
			<stop  offset="0.0921" style="stop-color:#5F8FE3"/>
			<stop  offset="0.2636" style="stop-color:#3D74E3"/>
			<stop  offset="0.4389" style="stop-color:#225EE3"/>
			<stop  offset="0.617" style="stop-color:#0F4FE3"/>
			<stop  offset="0.8" style="stop-color:#0446E3"/>
			<stop  offset="0.9948" style="stop-color:#0043E3"/>
		</linearGradient>
		<path fill-rule="evenodd" clip-rule="evenodd" fill="url(#SVGID_2_)" d="M88.732,56.187c0,0.235-0.039,0.489-0.143,0.709
			c-0.114,0.411-0.205,0.708-0.373,1.029c-0.63,1.816-1.817,3.258-3.155,4.594c-3.733,3.738-7.453,7.496-11.214,11.205
			c-2.341,2.317-5.1,3.13-8.24,1.79c-1.827-0.773-3.077-2.306-4.365-3.732c-0.231-0.247-0.269-0.568-0.245-0.905
			c0.052-0.706,1.738-2.417,2.461-2.483c0.604-0.038,0.951,0.375,1.262,0.801c0.618,0.813,1.261,1.569,2.136,2.126
			c1.43,0.886,2.472,0.807,3.643-0.365c4.146-4.146,8.293-8.293,12.425-12.449c1.829-1.854,1.893-3.812,0.117-5.742
			c-3.155-3.453-6.449-6.763-9.929-9.888c-0.011-0.014-0.011-0.014-0.011-0.014c-0.773-2.459-0.516-4.185-0.065-5.29
			c0.258,0.103,0.502,0.229,0.76,0.358c1.029,0.528,1.891,1.3,2.718,2.124c2.974,2.974,5.959,5.962,8.946,8.925
			c1.328,1.301,2.357,2.756,2.847,4.566l0.36,1.279C88.745,55.303,88.874,55.647,88.732,56.187z"/>
		<linearGradient id="SVGID_3_" gradientUnits="userSpaceOnUse" x1="21.1221" y1="28.332" x2="35.1426" y2="28.332">
			<stop  offset="0" style="stop-color:#FFEF26"/>
			<stop  offset="0.0178" style="stop-color:#FFEA21"/>
			<stop  offset="0.102" style="stop-color:#FED70F"/>
			<stop  offset="0.1886" style="stop-color:#FDCC04"/>
			<stop  offset="0.2809" style="stop-color:#FDC800"/>
			<stop  offset="0.6685" style="stop-color:#F18F34"/>
			<stop  offset="0.8876" style="stop-color:#E95F32"/>
			<stop  offset="1" style="stop-color:#E3312D"/>
		</linearGradient>
		<path fill-rule="evenodd" clip-rule="evenodd" fill="url(#SVGID_3_)" d="M28.113,21.321c-3.914,0-6.979,3.066-6.991,6.963
			c-0.013,3.929,3.155,7.107,7.018,7.059c3.862-0.039,7.002-3.192,7.002-7.032C35.143,24.464,31.989,21.321,28.113,21.321z
			 M28.14,31.117c-1.636,0.015-2.86-1.209-2.847-2.833c0.014-1.542,1.262-2.779,2.82-2.779s2.807,1.246,2.807,2.805
			C30.92,29.895,29.709,31.117,28.14,31.117z"/>
		<path fill-rule="evenodd" clip-rule="evenodd" fill="#00FF33" d="M47.413,13.261c-4.208,0-7.518,3.294-7.53,7.505
			c-0.013,4.225,3.398,7.635,7.557,7.597c4.159-0.053,7.533-3.438,7.546-7.583C54.985,16.648,51.574,13.261,47.413,13.261z
			 M47.439,23.817c-1.75,0-3.077-1.31-3.064-3.051c0.013-1.675,1.365-3.012,3.037-2.999c1.674,0,3.015,1.352,3.015,3.027
			C50.427,22.494,49.138,23.806,47.439,23.817z"/>
		<linearGradient id="SVGID_4_" gradientUnits="userSpaceOnUse" x1="60.02" y1="28.3389" x2="74.0518" y2="28.3389">
			<stop  offset="0" style="stop-color:#0063E4"/>
			<stop  offset="0.9948" style="stop-color:#0063E3"/>
		</linearGradient>
		<path fill-rule="evenodd" clip-rule="evenodd" fill="url(#SVGID_4_)" d="M67.036,21.321c-3.874,0.014-7.016,3.143-7.016,6.99
			c0,3.84,3.193,7.046,7.004,7.046c3.9,0,7.042-3.168,7.027-7.072C74.042,24.396,70.937,21.306,67.036,21.321z M67.087,31.117
			c-1.596,0.029-2.883-1.238-2.883-2.807c0-1.516,1.262-2.795,2.806-2.805c1.584-0.025,2.884,1.246,2.873,2.819
			C69.883,29.857,68.634,31.107,67.087,31.117z"/>
		<path fill-rule="evenodd" clip-rule="evenodd" fill="#00FF33" d="M16.219,36.991"/>
		<path fill="none" d="M53.194,35.859c-1.532-1.52-3.385-2.268-5.523-2.308c-2.06-0.012-3.863,0.646-5.329,2.1
			c-1.766,1.75-3.504,3.529-5.28,5.253c-0.477,0.464-0.425,0.747,0.025,1.198c2.834,2.779,5.64,5.611,8.473,8.406
			c1.596,1.557,2.535,1.557,4.133,0c2.858-2.795,5.703-5.627,8.574-8.423c0.438-0.435,0.529-0.704,0.039-1.182
			C56.581,39.244,54.895,37.546,53.194,35.859z"/>
		<path fill="#00FF33" d="M33.509,38.292c-0.063,1.903,0.371,4.577,2.064,8.027c-0.917-3.09-0.739-7.192-0.574-9.183
			c-0.214,0.21-0.424,0.426-0.642,0.639C34.074,38.045,33.805,38.236,33.509,38.292z"/>
		<linearGradient id="SVGID_5_" gradientUnits="userSpaceOnUse" x1="6.6982" y1="46.5669" x2="35.8118" y2="46.5669">
			<stop  offset="0.0105" style="stop-color:#FFFFFF"/>
			<stop  offset="0.0405" style="stop-color:#FFFAE7"/>
			<stop  offset="0.1065" style="stop-color:#FFF1B7"/>
			<stop  offset="0.178" style="stop-color:#FFE88B"/>
			<stop  offset="0.2534" style="stop-color:#FFE066"/>
			<stop  offset="0.3338" style="stop-color:#FFDA46"/>
			<stop  offset="0.4207" style="stop-color:#FFD52C"/>
			<stop  offset="0.5166" style="stop-color:#FFD119"/>
			<stop  offset="0.6263" style="stop-color:#FFCE0B"/>
			<stop  offset="0.7617" style="stop-color:#FFCC02"/>
			<stop  offset="1" style="stop-color:#FFCC00"/>
		</linearGradient>
		<path fill="url(#SVGID_5_)" d="M35.688,46.688c0.042,0.042,0.084,0.086,0.125,0.127c-0.086-0.17-0.157-0.328-0.239-0.495
			C35.611,46.442,35.646,46.565,35.688,46.688z"/>
		<path opacity="0.4" d="M33.509,38.292c-0.246,0.062-0.527,0.011-0.838-0.194c-0.941-0.608-1.928-1.015-2.945-1.269
			c-0.186,1.677,2.263,5.379,4.477,8.373c0.494,0.497,0.991,0.986,1.484,1.485c-0.041-0.122-0.077-0.245-0.114-0.368
			C33.88,42.869,33.447,40.195,33.509,38.292z"/>
		<linearGradient id="SVGID_6_" gradientUnits="userSpaceOnUse" x1="33.5034" y1="42.5933" x2="73.1011" y2="42.5933">
			<stop  offset="0" style="stop-color:#FFEF26"/>
			<stop  offset="0.0047" style="stop-color:#FBEF26"/>
			<stop  offset="0.0569" style="stop-color:#D7F328"/>
			<stop  offset="0.1139" style="stop-color:#B8F62A"/>
			<stop  offset="0.1785" style="stop-color:#9CF92B"/>
			<stop  offset="0.2515" style="stop-color:#86FB2C"/>
			<stop  offset="0.3366" style="stop-color:#75FD2D"/>
			<stop  offset="0.442" style="stop-color:#6AFE2E"/>
			<stop  offset="0.5898" style="stop-color:#63FF2E"/>
			<stop  offset="1" style="stop-color:#61FF2E"/>
		</linearGradient>
		<path fill="url(#SVGID_6_)" d="M73.036,37.571c-3.31-1.508-6.656-1.587-9.965,0.358c-1.094,0.645-1.172,0.696-2.061-0.27
			c-1.622-1.765-3.333-3.45-5.138-5.033c-4.196-3.696-10.622-5.063-16.106-0.207c-1.678,1.494-3.19,3.139-4.767,4.717
			c-0.214,0.21-0.424,0.426-0.642,0.639c-0.284,0.27-0.552,0.461-0.848,0.517c-0.063,1.903,0.371,4.577,2.064,8.027
			c0.082,0.167,0.153,0.325,0.239,0.495c1.238,1.226,2.447,2.458,3.683,3.685c1.275,1.26,2.511,2.56,3.862,3.732
			c2.782,2.396,6.349,2.161,8.949-0.414c3.695-3.646,7.417-7.271,11.162-10.878c2.886-2.769,6.414-2.974,9.181-0.49
			c0.156,0.141,0.298,0.27,0.452,0.412C72.328,40.402,72.585,38.677,73.036,37.571z M58.267,42.086
			c-2.871,2.796-5.716,5.628-8.574,8.423c-1.598,1.557-2.537,1.557-4.133,0c-2.833-2.795-5.639-5.627-8.473-8.406
			c-0.45-0.451-0.502-0.734-0.025-1.198c1.776-1.724,3.515-3.503,5.28-5.253c1.466-1.454,3.269-2.111,5.329-2.1
			c2.138,0.04,3.991,0.788,5.523,2.308c1.701,1.687,3.387,3.385,5.112,5.045C58.796,41.382,58.705,41.651,58.267,42.086z"/>
		<linearGradient id="SVGID_7_" gradientUnits="userSpaceOnUse" x1="6.6831" y1="56.3457" x2="37.147" y2="56.3457">
			<stop  offset="0" style="stop-color:#FFEF26"/>
			<stop  offset="0.0178" style="stop-color:#FFEA21"/>
			<stop  offset="0.102" style="stop-color:#FED70F"/>
			<stop  offset="0.1886" style="stop-color:#FDCC04"/>
			<stop  offset="0.2809" style="stop-color:#FDC800"/>
			<stop  offset="0.6685" style="stop-color:#F18F34"/>
			<stop  offset="0.8876" style="stop-color:#E95F32"/>
			<stop  offset="1" style="stop-color:#E3312D"/>
		</linearGradient>
		<path fill="url(#SVGID_7_)" d="M34.203,45.202c-0.664-0.663-1.327-1.331-1.995-1.995c-1.868-1.839-4.043-2.866-6.734-2.264
			c-1.288,0.283-2.343,0.99-3.257,1.894c-3.206,3.152-6.399,6.333-9.58,9.539c-2.021,2.037-2.137,4.095-0.153,6.152
			c3.437,3.593,6.977,7.073,10.494,10.587c0.707,0.72,1.376,1.479,2.188,2.098c1.237,0.938,2.332,0.953,3.515-0.064
			c0.786-0.682,1.507-1.441,2.267-2.151c0.747-0.71,1.261-0.71,2.047-0.052c1.841,1.547,1.854,1.896,0.283,3.724
			c-1.081,1.263-2.253,2.394-3.851,3c-2.69,1.003-5.124,0.513-7.248-1.366c-2.91-2.56-5.498-5.445-8.241-8.175
			c-1.454-1.442-2.871-2.923-4.313-4.378c-1.107-1.095-1.931-2.369-2.473-3.825c-0.18-0.383-0.232-0.656-0.36-1.211
			c0-0.165-0.065-0.292-0.065-0.462c0-0.542-0.089-0.887-0.012-1.545c0-0.179,0.077-0.411,0.077-0.582
			c0.09-0.41,0.206-0.706,0.347-1.042c0.528-1.571,1.494-2.843,2.666-3.992c3.387-3.309,6.747-6.627,10.094-9.979
			c1.571-1.566,3.503-2.261,5.652-2.51c1.446-0.165,2.841-0.105,4.176,0.227C29.541,38.506,31.99,42.208,34.203,45.202z
			 M33.509,38.292c-0.246,0.062-0.527,0.011-0.838-0.194c-0.941-0.608-1.928-1.015-2.945-1.269
			c-0.186,1.677,2.263,5.379,4.477,8.373c0.494,0.497,0.991,0.986,1.484,1.485c-0.041-0.122-0.077-0.245-0.114-0.368
			C33.88,42.869,33.447,40.195,33.509,38.292z"/>
	</g>
	<g>
		<path stroke="#000000" stroke-width="0.75" stroke-miterlimit="10" d="M122.154,37.484l-12.049,29.429h-3.433l3.944-9.637
			l-8.069-19.792h3.688l6.279,16.214l6.206-16.214H122.154z"/>
		<path stroke="#000000" stroke-width="0.75" stroke-miterlimit="10" d="M129.108,56.544c-1.522-0.851-2.712-2.063-3.578-3.635
			c-0.865-1.568-1.295-3.387-1.295-5.456c0-2.046,0.445-3.85,1.333-5.42c0.888-1.57,2.1-2.775,3.633-3.614
			c1.533-0.843,3.249-1.263,5.149-1.263c1.896,0,3.613,0.42,5.146,1.263c1.534,0.839,2.745,2.037,3.632,3.596
			c0.889,1.559,1.334,3.372,1.334,5.438c0,2.069-0.456,3.888-1.368,5.456c-0.915,1.572-2.15,2.784-3.708,3.635
			c-1.558,0.852-3.284,1.277-5.185,1.277C132.327,57.821,130.63,57.396,129.108,56.544z M137.56,54.061
			c1.046-0.558,1.893-1.398,2.539-2.518c0.643-1.119,0.965-2.482,0.965-4.09c0-1.604-0.315-2.967-0.948-4.086
			c-0.632-1.119-1.461-1.955-2.482-2.501c-1.022-0.552-2.129-0.822-3.324-0.822c-1.217,0-2.331,0.271-3.34,0.822
			c-1.011,0.546-1.82,1.382-2.427,2.501c-0.61,1.119-0.914,2.482-0.914,4.086c0,1.632,0.299,3.005,0.896,4.125
			c0.595,1.119,1.391,1.953,2.391,2.502c0.998,0.547,2.092,0.823,3.285,0.823C135.394,54.903,136.514,54.621,137.56,54.061z"/>
		<path stroke="#000000" stroke-width="0.75" stroke-miterlimit="10" d="M166.585,37.484v20.01h-3.321v-2.959
			c-0.633,1.023-1.515,1.82-2.648,2.394c-1.13,0.574-2.378,0.859-3.742,0.859c-1.558,0-2.958-0.325-4.198-0.97
			c-1.243-0.646-2.222-1.612-2.938-2.901c-0.719-1.29-1.078-2.861-1.078-4.709V37.484h3.286v11.283c0,1.971,0.498,3.485,1.497,4.544
			c0.998,1.06,2.36,1.592,4.091,1.592c1.775,0,3.174-0.549,4.197-1.645c1.023-1.095,1.534-2.691,1.534-4.782V37.484H166.585z"/>
		<path stroke="#000000" stroke-width="0.75" stroke-miterlimit="10" d="M178.032,38.074c1.085-0.638,2.405-0.952,3.964-0.952v3.435
			h-0.877c-3.727,0-5.587,2.019-5.587,6.06v10.878h-3.323v-20.01h3.323v3.25C176.115,39.591,176.949,38.705,178.032,38.074z"/>
		<path stroke="#000000" stroke-width="0.75" stroke-miterlimit="10" d="M223.799,38.09c1.215,0.644,2.176,1.61,2.884,2.903
			c0.706,1.289,1.058,2.857,1.058,4.708v11.793h-3.283V46.178c0-2-0.494-3.523-1.479-4.584c-0.986-1.056-2.318-1.589-4.001-1.589
			c-1.726,0-3.102,0.554-4.125,1.663c-1.019,1.108-1.532,2.71-1.532,4.8v11.026h-3.289V46.178c0-2-0.49-3.523-1.477-4.584
			c-0.985-1.056-2.316-1.589-3.999-1.589c-1.726,0-3.104,0.554-4.124,1.663c-1.022,1.108-1.535,2.71-1.535,4.8v11.026h-3.322v-20.01
			h3.322v2.888c0.659-1.046,1.539-1.851,2.646-2.409c1.109-0.562,2.331-0.841,3.67-0.841c1.68,0,3.163,0.379,4.454,1.133
			c1.289,0.754,2.254,1.862,2.887,3.32c0.559-1.413,1.483-2.507,2.771-3.283c1.294-0.78,2.728-1.17,4.31-1.17
			C221.193,37.122,222.581,37.444,223.799,38.09z"/>
		<path stroke="#000000" stroke-width="0.75" stroke-miterlimit="10" d="M251.327,48.73h-15.993c0.121,1.97,0.799,3.513,2.027,4.618
			c1.23,1.109,2.722,1.662,4.474,1.662c1.437,0,2.634-0.334,3.597-1.002c0.962-0.671,1.636-1.564,2.023-2.684h3.578
			c-0.535,1.92-1.605,3.484-3.208,4.689c-1.608,1.204-3.604,1.807-5.99,1.807c-1.898,0-3.598-0.426-5.094-1.277
			c-1.498-0.851-2.67-2.063-3.522-3.635c-0.854-1.568-1.277-3.387-1.277-5.456c0-2.066,0.415-3.88,1.237-5.438
			c0.831-1.559,1.995-2.757,3.488-3.596c1.496-0.843,3.221-1.263,5.168-1.263c1.898,0,3.577,0.418,5.039,1.246
			c1.457,0.825,2.586,1.961,3.376,3.409c0.791,1.448,1.188,3.088,1.188,4.914C251.438,47.357,251.402,48.026,251.327,48.73z
			 M247.167,42.763c-0.563-0.911-1.324-1.605-2.283-2.079c-0.963-0.479-2.025-0.714-3.195-0.714c-1.681,0-3.111,0.536-4.291,1.605
			c-1.179,1.07-1.854,2.559-2.023,4.454h12.629C248.003,44.765,247.725,43.678,247.167,42.763z"/>
		<path stroke="#000000" stroke-width="0.75" stroke-miterlimit="10" d="M271.479,39.329c1.51,1.474,2.266,3.596,2.266,6.372v11.793
			h-3.284V46.178c0-2-0.503-3.523-1.496-4.584c-1.001-1.056-2.364-1.589-4.091-1.589c-1.754,0-3.148,0.552-4.178,1.646
			c-1.041,1.093-1.555,2.688-1.555,4.78v11.063h-3.323v-20.01h3.323v2.85c0.656-1.022,1.555-1.813,2.685-2.371
			c1.129-0.562,2.375-0.841,3.738-0.841C267.998,37.122,269.972,37.856,271.479,39.329z"/>
		<path stroke="#000000" stroke-width="0.75" stroke-miterlimit="10" d="M283.238,40.224v11.793c0,0.976,0.204,1.664,0.618,2.063
			c0.412,0.401,1.135,0.604,2.154,0.604h2.449v2.811h-2.996c-1.852,0-3.235-0.427-4.162-1.278c-0.925-0.851-1.386-2.248-1.386-4.199
			V40.224h-2.594v-2.739h2.594v-5.036h3.322v5.036h5.222v2.739H283.238z"/>
		<path stroke="#000000" stroke-width="0.75" stroke-miterlimit="10" d="M296.109,56.544c-1.522-0.851-2.718-2.063-3.579-3.635
			c-0.865-1.568-1.299-3.387-1.299-5.456c0-2.046,0.444-3.85,1.336-5.42c0.887-1.57,2.097-2.775,3.631-3.614
			c1.534-0.843,3.249-1.263,5.148-1.263c1.901,0,3.613,0.42,5.15,1.263c1.532,0.839,2.74,2.037,3.63,3.596
			c0.887,1.559,1.332,3.372,1.332,5.438c0,2.069-0.456,3.888-1.368,5.456c-0.913,1.572-2.149,2.784-3.705,3.635
			c-1.56,0.852-3.288,1.277-5.184,1.277C299.327,57.821,297.627,57.396,296.109,56.544z M304.561,54.061
			c1.046-0.558,1.891-1.398,2.537-2.518s0.966-2.482,0.966-4.09c0-1.604-0.316-2.967-0.949-4.086
			c-0.631-1.119-1.459-1.955-2.483-2.501c-1.021-0.552-2.129-0.822-3.319-0.822c-1.218,0-2.329,0.271-3.342,0.822
			c-1.01,0.546-1.822,1.382-2.43,2.501c-0.606,1.119-0.91,2.482-0.91,4.086c0,1.632,0.296,3.005,0.895,4.125
			c0.595,1.119,1.393,1.953,2.389,2.502c1.001,0.547,2.096,0.823,3.289,0.823C302.392,54.903,303.511,54.621,304.561,54.061z"/>
		<path stroke="#000000" stroke-width="0.75" stroke-miterlimit="10" d="M321.666,38.074c1.082-0.638,2.402-0.952,3.96-0.952v3.435
			h-0.874c-3.725,0-5.59,2.019-5.59,6.06v10.878h-3.319v-20.01h3.319v3.25C319.747,39.591,320.582,38.705,321.666,38.074z"/>
		<path stroke="#000000" stroke-width="0.75" stroke-miterlimit="10" d="M357.68,38.09c1.22,0.644,2.18,1.61,2.889,2.903
			c0.706,1.289,1.054,2.857,1.054,4.708v11.793h-3.283V46.178c0-2-0.492-3.523-1.477-4.584c-0.985-1.056-2.321-1.589-3.999-1.589
			c-1.732,0-3.104,0.554-4.128,1.663c-1.022,1.108-1.535,2.71-1.535,4.8v11.026h-3.284V46.178c0-2-0.49-3.523-1.479-4.584
			c-0.986-1.056-2.315-1.589-4-1.589c-1.726,0-3.101,0.554-4.125,1.663c-1.02,1.108-1.531,2.71-1.531,4.8v11.026h-3.32v-20.01h3.32
			v2.888c0.656-1.046,1.54-1.851,2.649-2.409c1.105-0.562,2.329-0.841,3.668-0.841c1.678,0,3.165,0.379,4.456,1.133
			c1.287,0.754,2.248,1.862,2.881,3.32c0.561-1.413,1.487-2.507,2.775-3.283c1.289-0.78,2.729-1.17,4.31-1.17
			C355.078,37.122,356.462,37.444,357.68,38.09z"/>
		<path stroke="#000000" stroke-width="0.75" stroke-miterlimit="10" d="M367.064,42.033c0.827-1.545,1.964-2.747,3.413-3.597
			c1.447-0.852,3.062-1.28,4.841-1.28c1.751,0,3.272,0.379,4.561,1.136c1.29,0.751,2.252,1.703,2.887,2.847v-3.654h3.358v20.01
			h-3.358v-3.726c-0.657,1.168-1.641,2.138-2.938,2.903c-1.306,0.766-2.822,1.149-4.549,1.149c-1.779,0-3.381-0.436-4.82-1.312
			c-1.434-0.877-2.567-2.106-3.395-3.688c-0.827-1.582-1.242-3.385-1.242-5.403C365.822,45.373,366.237,43.578,367.064,42.033z
			 M381.854,43.513c-0.611-1.121-1.434-1.979-2.465-2.578c-1.035-0.594-2.172-0.891-3.417-0.891c-1.238,0-2.374,0.29-3.393,0.875
			c-1.021,0.583-1.841,1.438-2.447,2.557c-0.609,1.12-0.912,2.436-0.912,3.943c0,1.531,0.303,2.864,0.912,3.997
			c0.606,1.131,1.427,1.995,2.447,2.593c1.019,0.596,2.154,0.895,3.393,0.895c1.245,0,2.382-0.299,3.417-0.895
			c1.031-0.598,1.854-1.462,2.465-2.593c0.606-1.133,0.912-2.452,0.912-3.963C382.766,45.945,382.46,44.63,381.854,43.513z"/>
		<path stroke="#000000" stroke-width="0.75" stroke-miterlimit="10" d="M395.797,40.224v11.793c0,0.976,0.21,1.664,0.621,2.063
			c0.414,0.401,1.135,0.604,2.154,0.604h2.449v2.811h-2.995c-1.85,0-3.238-0.427-4.165-1.278c-0.924-0.851-1.383-2.248-1.383-4.199
			V40.224h-2.594v-2.739h2.594v-5.036h3.318v5.036h5.225v2.739H395.797z"/>
		<path stroke="#000000" stroke-width="0.75" stroke-miterlimit="10" d="M423.182,48.73H407.19c0.121,1.97,0.796,3.513,2.023,4.618
			c1.23,1.109,2.726,1.662,4.476,1.662c1.436,0,2.636-0.334,3.597-1.002c0.96-0.671,1.634-1.564,2.027-2.684h3.578
			c-0.537,1.92-1.607,3.484-3.214,4.689c-1.607,1.204-3.604,1.807-5.988,1.807c-1.897,0-3.599-0.426-5.093-1.277
			c-1.497-0.851-2.673-2.063-3.524-3.635c-0.851-1.568-1.278-3.387-1.278-5.456c0-2.066,0.414-3.88,1.242-5.438
			c0.827-1.559,1.989-2.757,3.487-3.596c1.497-0.843,3.217-1.263,5.166-1.263c1.896,0,3.578,0.418,5.038,1.246
			c1.462,0.825,2.585,1.961,3.375,3.409c0.791,1.448,1.191,3.088,1.191,4.914C423.294,47.357,423.255,48.026,423.182,48.73z
			 M419.019,42.763c-0.56-0.911-1.319-1.605-2.28-2.079c-0.961-0.479-2.027-0.714-3.195-0.714c-1.679,0-3.108,0.536-4.289,1.605
			c-1.184,1.07-1.856,2.559-2.027,4.454h12.635C419.861,44.765,419.579,43.678,419.019,42.763z"/>
	</g>
</g>
</svg>
