<?xml version="1.0" encoding="utf-8"?>
<!-- Generator: Adobe Illustrator 16.0.0, SVG Export Plug-In . SVG Version: 6.00 Build 0)  -->
<!DOCTYPE svg PUBLIC "-//W3C//DTD SVG 1.1//EN" "http://www.w3.org/Graphics/SVG/1.1/DTD/svg11.dtd">
<svg version="1.1" id="Capa_1" xmlns="http://www.w3.org/2000/svg" xmlns:xlink="http://www.w3.org/1999/xlink" x="0px" y="0px"
	 width="425.2px" height="79.37px" viewBox="0 0 425.2 79.37" enable-background="new 0 0 425.2 79.37" xml:space="preserve">
<rect fill-rule="evenodd" clip-rule="evenodd" stroke="#000000" stroke-miterlimit="10" width="428.333" height="79.419"/>
<linearGradient id="SVGID_1_" gradientUnits="userSpaceOnUse" x1="24.522" y1="55.1514" x2="73.563" y2="55.1514">
	<stop  offset="0" style="stop-color:#FFEF26"/>
	<stop  offset="0.0047" style="stop-color:#FBEF26"/>
	<stop  offset="0.0569" style="stop-color:#D7F328"/>
	<stop  offset="0.1139" style="stop-color:#B8F62A"/>
	<stop  offset="0.1785" style="stop-color:#9CF92B"/>
	<stop  offset="0.2515" style="stop-color:#86FB2C"/>
	<stop  offset="0.3366" style="stop-color:#75FD2D"/>
	<stop  offset="0.442" style="stop-color:#6AFE2E"/>
	<stop  offset="0.5898" style="stop-color:#63FF2E"/>
	<stop  offset="1" style="stop-color:#61FF2E"/>
</linearGradient>
<path fill-rule="evenodd" clip-rule="evenodd" fill="url(#SVGID_1_)" d="M24.524,47.363c-0.012-2.333,0.775-4.216,2.456-5.733
	c0.92-0.833,1.768-1.75,2.656-2.617c0.85-0.833,1.164-0.85,2.108-0.156c0.069,0.053,0.137,0.101,0.205,0.152
	c1.654,1.255,1.686,1.805,0.212,3.267c-0.843,0.833-1.734,1.622-2.476,2.555c-1.472,1.854-1.437,3.455,0.215,5.125
	c3.079,3.116,6.192,6.194,9.3,9.281c2.306,2.291,4.623,4.567,6.936,6.85c0.242,0.239,0.478,0.482,0.722,0.717
	c1.614,1.546,2.875,1.573,4.477,0.009c2.103-2.052,4.165-4.148,6.242-6.227c3.176-3.18,6.352-6.359,9.52-9.545
	c0.498-0.499,0.989-1.011,1.424-1.563c1.141-1.453,1.146-2.854,0.052-4.349c-0.888-1.217-2.05-2.178-3.084-3.259
	c-0.985-1.028-0.993-1.356,0.001-2.387c1.634-1.688,1.848-1.697,3.512-0.076c0.891,0.867,1.781,1.735,2.572,2.696
	c2.792,3.395,2.643,7.59-0.442,10.719c-3.292,3.34-6.637,6.628-9.943,9.959c-2.229,2.242-4.43,4.515-6.638,6.78
	c-1.391,1.425-3.024,2.373-5.039,2.519c-2.236,0.159-4.064-0.732-5.623-2.281c-4.415-4.374-8.835-8.744-13.252-13.119
	c-1.264-1.253-2.546-2.49-3.783-3.77C25.34,51.345,24.471,49.494,24.524,47.363z"/>
<linearGradient id="SVGID_2_" gradientUnits="userSpaceOnUse" x1="62.0376" y1="51.3711" x2="89.2524" y2="51.3711">
	<stop  offset="0.0052" style="stop-color:#739FE3"/>
	<stop  offset="0.0921" style="stop-color:#5F8FE3"/>
	<stop  offset="0.2636" style="stop-color:#3D74E3"/>
	<stop  offset="0.4389" style="stop-color:#225EE3"/>
	<stop  offset="0.617" style="stop-color:#0F4FE3"/>
	<stop  offset="0.8" style="stop-color:#0446E3"/>
	<stop  offset="0.9948" style="stop-color:#0043E3"/>
</linearGradient>
<path fill-rule="evenodd" clip-rule="evenodd" fill="url(#SVGID_2_)" d="M89.19,50.708c0,0.229-0.038,0.479-0.138,0.692
	c-0.114,0.403-0.203,0.695-0.367,1.009c-0.615,1.778-1.777,3.189-3.086,4.498c-3.655,3.657-7.296,7.336-10.976,10.965
	c-2.294,2.269-4.992,3.063-8.065,1.751c-1.791-0.754-3.013-2.256-4.274-3.654c-0.226-0.24-0.263-0.553-0.239-0.882
	c0.051-0.693,1.702-2.367,2.408-2.433c0.593-0.036,0.933,0.367,1.234,0.782c0.604,0.794,1.235,1.54,2.093,2.081
	c1.399,0.868,2.418,0.794,3.566-0.354c4.059-4.059,8.117-8.117,12.161-12.187c1.79-1.815,1.854-3.73,0.114-5.62
	c-3.087-3.378-6.314-6.617-9.717-9.678c-0.012-0.014-0.012-0.014-0.012-0.014c-0.755-2.406-0.505-4.097-0.063-5.179
	c0.252,0.1,0.491,0.225,0.743,0.353c1.009,0.515,1.853,1.272,2.66,2.078c2.913,2.911,5.833,5.835,8.758,8.735
	c1.3,1.272,2.306,2.696,2.785,4.472l0.354,1.25C89.204,49.841,89.329,50.179,89.19,50.708z"/>
<linearGradient id="SVGID_3_" gradientUnits="userSpaceOnUse" x1="23.0156" y1="23.4429" x2="36.7393" y2="23.4429">
	<stop  offset="0" style="stop-color:#FFEF26"/>
	<stop  offset="0.0178" style="stop-color:#FFEA21"/>
	<stop  offset="0.102" style="stop-color:#FED70F"/>
	<stop  offset="0.1886" style="stop-color:#FDCC04"/>
	<stop  offset="0.2809" style="stop-color:#FDC800"/>
	<stop  offset="0.6685" style="stop-color:#F18F34"/>
	<stop  offset="0.8876" style="stop-color:#E95F32"/>
	<stop  offset="1" style="stop-color:#E3312D"/>
</linearGradient>
<path fill-rule="evenodd" clip-rule="evenodd" fill="url(#SVGID_3_)" d="M29.858,16.581c-3.831,0-6.83,3-6.842,6.819
	c-0.013,3.842,3.087,6.955,6.869,6.905c3.779-0.038,6.855-3.125,6.855-6.881C36.739,19.657,33.651,16.581,29.858,16.581z
	 M29.884,26.172c-1.601,0.012-2.799-1.184-2.786-2.772c0.013-1.513,1.235-2.723,2.76-2.723c1.525,0,2.748,1.222,2.748,2.747
	C32.605,24.974,31.42,26.172,29.884,26.172z"/>
<path fill-rule="evenodd" clip-rule="evenodd" fill="#00FF33" d="M48.749,8.692c-4.12,0-7.359,3.226-7.371,7.346
	c-0.013,4.135,3.326,7.475,7.397,7.436c4.07-0.05,7.373-3.363,7.385-7.422C56.16,12.007,52.82,8.692,48.749,8.692z M48.775,19.026
	c-1.714,0-3.012-1.284-3-2.989c0.014-1.636,1.336-2.947,2.973-2.935c1.639,0,2.95,1.324,2.95,2.962
	C51.698,17.729,50.437,19.015,48.775,19.026z"/>
<linearGradient id="SVGID_4_" gradientUnits="userSpaceOnUse" x1="61.0879" y1="23.4497" x2="74.8228" y2="23.4497">
	<stop  offset="0" style="stop-color:#0063E4"/>
	<stop  offset="0.9948" style="stop-color:#0063E3"/>
</linearGradient>
<path fill-rule="evenodd" clip-rule="evenodd" fill="url(#SVGID_4_)" d="M67.956,16.581c-3.794,0.014-6.868,3.077-6.868,6.843
	c0,3.756,3.125,6.895,6.855,6.895c3.817,0,6.893-3.101,6.879-6.919C74.811,19.593,71.774,16.569,67.956,16.581z M68.005,26.172
	c-1.563,0.026-2.822-1.21-2.822-2.748c0-1.484,1.236-2.734,2.747-2.747c1.55-0.024,2.824,1.222,2.811,2.76
	C70.741,24.936,69.519,26.16,68.005,26.172z"/>
<path fill-rule="evenodd" clip-rule="evenodd" fill="#00FF33" d="M18.217,31.919"/>
<path fill="none" d="M54.407,30.81c-1.499-1.486-3.313-2.219-5.406-2.255c-2.016-0.013-3.781,0.631-5.217,2.055
	c-1.727,1.712-3.428,3.453-5.167,5.14c-0.467,0.454-0.416,0.731,0.025,1.172c2.774,2.72,5.52,5.493,8.293,8.228
	c1.562,1.525,2.481,1.525,4.045,0c2.797-2.734,5.583-5.507,8.393-8.241c0.429-0.427,0.516-0.692,0.038-1.159
	C57.722,34.125,56.071,32.462,54.407,30.81z"/>
<path fill="#00FF33" d="M35.139,33.191c-0.061,1.863,0.364,4.48,2.021,7.857c-0.897-3.024-0.725-7.038-0.562-8.988
	c-0.21,0.208-0.416,0.42-0.628,0.625C35.693,32.952,35.429,33.142,35.139,33.191z"/>
<linearGradient id="SVGID_5_" gradientUnits="userSpaceOnUse" x1="8.9351" y1="41.291" x2="37.3937" y2="41.291">
	<stop  offset="0.0105" style="stop-color:#FFFFFF"/>
	<stop  offset="0.0405" style="stop-color:#FFFAE7"/>
	<stop  offset="0.1065" style="stop-color:#FFF1B7"/>
	<stop  offset="0.178" style="stop-color:#FFE88B"/>
	<stop  offset="0.2534" style="stop-color:#FFE066"/>
	<stop  offset="0.3338" style="stop-color:#FFDA46"/>
	<stop  offset="0.4207" style="stop-color:#FFD52C"/>
	<stop  offset="0.5166" style="stop-color:#FFD119"/>
	<stop  offset="0.6263" style="stop-color:#FFCE0B"/>
	<stop  offset="0.7617" style="stop-color:#FFCC02"/>
	<stop  offset="1" style="stop-color:#FFCC00"/>
</linearGradient>
<path fill="url(#SVGID_5_)" d="M37.271,41.41c0.042,0.042,0.082,0.081,0.122,0.123c-0.084-0.166-0.153-0.322-0.233-0.484
	C37.197,41.17,37.231,41.291,37.271,41.41z"/>
<path opacity="0.4" d="M35.139,33.191c-0.24,0.062-0.517,0.012-0.82-0.19c-0.921-0.595-1.886-0.992-2.882-1.242
	c-0.182,1.644,2.214,5.268,4.381,8.197c0.484,0.486,0.971,0.966,1.453,1.453c-0.04-0.119-0.075-0.24-0.111-0.361
	C35.503,37.672,35.079,35.055,35.139,33.191z"/>
<linearGradient id="SVGID_6_" gradientUnits="userSpaceOnUse" x1="35.1338" y1="37.4014" x2="73.8911" y2="37.4014">
	<stop  offset="0" style="stop-color:#FFEF26"/>
	<stop  offset="0.0047" style="stop-color:#FBEF26"/>
	<stop  offset="0.0569" style="stop-color:#D7F328"/>
	<stop  offset="0.1139" style="stop-color:#B8F62A"/>
	<stop  offset="0.1785" style="stop-color:#9CF92B"/>
	<stop  offset="0.2515" style="stop-color:#86FB2C"/>
	<stop  offset="0.3366" style="stop-color:#75FD2D"/>
	<stop  offset="0.442" style="stop-color:#6AFE2E"/>
	<stop  offset="0.5898" style="stop-color:#63FF2E"/>
	<stop  offset="1" style="stop-color:#61FF2E"/>
</linearGradient>
<path fill="url(#SVGID_6_)" d="M73.828,32.486c-3.239-1.476-6.515-1.551-9.753,0.353c-1.072,0.629-1.147,0.681-2.017-0.266
	c-1.587-1.726-3.264-3.378-5.029-4.926c-4.107-3.616-10.396-4.954-15.765-0.201c-1.642,1.465-3.122,3.073-4.665,4.616
	c-0.21,0.208-0.416,0.42-0.628,0.625c-0.277,0.265-0.542,0.455-0.831,0.505c-0.061,1.863,0.364,4.48,2.021,7.857
	c0.08,0.162,0.149,0.318,0.233,0.484c1.211,1.199,2.396,2.407,3.605,3.605c1.249,1.234,2.458,2.509,3.781,3.653
	c2.722,2.345,6.213,2.117,8.758-0.403c3.618-3.566,7.261-7.118,10.927-10.648c2.823-2.71,6.277-2.911,8.986-0.479
	c0.152,0.138,0.29,0.264,0.441,0.403C73.136,35.259,73.386,33.568,73.828,32.486z M59.373,36.908
	c-2.81,2.734-5.595,5.507-8.393,8.241c-1.564,1.525-2.483,1.525-4.045,0c-2.774-2.734-5.52-5.507-8.293-8.228
	c-0.441-0.441-0.492-0.719-0.025-1.172c1.739-1.687,3.44-3.428,5.167-5.14c1.437-1.424,3.201-2.068,5.217-2.055
	c2.092,0.036,3.907,0.769,5.406,2.255c1.664,1.652,3.315,3.315,5.003,4.94C59.889,36.216,59.802,36.481,59.373,36.908z"/>
<linearGradient id="SVGID_7_" gradientUnits="userSpaceOnUse" x1="8.8828" y1="50.8633" x2="38.7" y2="50.8633">
	<stop  offset="0" style="stop-color:#FFEF26"/>
	<stop  offset="0.0178" style="stop-color:#FFEA21"/>
	<stop  offset="0.102" style="stop-color:#FED70F"/>
	<stop  offset="0.1886" style="stop-color:#FDCC04"/>
	<stop  offset="0.2809" style="stop-color:#FDC800"/>
	<stop  offset="0.6685" style="stop-color:#F18F34"/>
	<stop  offset="0.8876" style="stop-color:#E95F32"/>
	<stop  offset="1" style="stop-color:#E3312D"/>
</linearGradient>
<path fill="url(#SVGID_7_)" d="M35.818,39.957c-0.649-0.65-1.298-1.304-1.952-1.952c-1.828-1.802-3.958-2.809-6.592-2.218
	c-1.26,0.277-2.293,0.97-3.188,1.853c-3.139,3.087-6.264,6.199-9.377,9.337c-1.979,1.992-2.091,4.007-0.15,6.023
	c3.364,3.516,6.829,6.92,10.27,10.358c0.693,0.707,1.348,1.452,2.142,2.057c1.21,0.92,2.282,0.932,3.44-0.065
	c0.769-0.664,1.476-1.408,2.219-2.102c0.731-0.695,1.234-0.695,2.003-0.053c1.802,1.515,1.814,1.855,0.277,3.641
	c-1.058,1.238-2.205,2.346-3.769,2.94c-2.633,0.981-5.015,0.501-7.094-1.336c-2.848-2.509-5.381-5.334-8.065-8.006
	c-1.423-1.407-2.81-2.859-4.222-4.282c-1.084-1.071-1.89-2.317-2.42-3.744c-0.176-0.378-0.227-0.643-0.353-1.185
	c0-0.164-0.063-0.288-0.063-0.453c0-0.53-0.088-0.869-0.013-1.512c0-0.177,0.076-0.403,0.076-0.568
	c0.088-0.401,0.202-0.692,0.339-1.021c0.517-1.538,1.463-2.784,2.61-3.906c3.314-3.239,6.604-6.49,9.88-9.768
	c1.537-1.535,3.429-2.216,5.533-2.458c1.415-0.162,2.78-0.104,4.087,0.221C31.256,33.404,33.652,37.027,35.818,39.957z
	 M35.139,33.191c-0.24,0.062-0.517,0.012-0.82-0.19c-0.921-0.595-1.886-0.992-2.882-1.242c-0.182,1.644,2.214,5.268,4.381,8.197
	c0.484,0.486,0.971,0.966,1.453,1.453c-0.04-0.119-0.075-0.24-0.111-0.361C35.503,37.672,35.079,35.055,35.139,33.191z"/>
<g>
	<path fill="#FFFFFF" stroke="#FFFFFF" stroke-width="0.5" stroke-miterlimit="10" d="M121.329,34.358l-11.792,28.805h-3.36
		l3.858-9.436l-7.896-19.369h3.609l6.147,15.868l6.074-15.868H121.329z"/>
	<path fill="#FFFFFF" stroke="#FFFFFF" stroke-width="0.5" stroke-miterlimit="10" d="M128.136,53.013
		c-1.49-0.833-2.655-2.021-3.501-3.558c-0.848-1.535-1.269-3.314-1.269-5.341c0-2.002,0.436-3.771,1.304-5.307
		c0.871-1.536,2.056-2.715,3.557-3.536c1.5-0.823,3.18-1.235,5.04-1.235c1.856,0,3.537,0.412,5.038,1.235
		c1.5,0.821,2.686,1.995,3.554,3.52c0.871,1.524,1.307,3.299,1.307,5.324c0,2.026-0.447,3.806-1.342,5.341
		c-0.892,1.537-2.102,2.725-3.626,3.558c-1.524,0.832-3.215,1.25-5.076,1.25C131.286,54.263,129.626,53.845,128.136,53.013z
		 M136.409,50.582c1.023-0.547,1.854-1.369,2.486-2.465c0.629-1.096,0.943-2.431,0.943-4.003c0-1.571-0.308-2.906-0.927-4.002
		c-0.619-1.096-1.43-1.911-2.429-2.447c-1.003-0.538-2.085-0.804-3.253-0.804c-1.192,0-2.282,0.266-3.271,0.804
		c-0.988,0.536-1.78,1.351-2.375,2.447c-0.598,1.096-0.896,2.431-0.896,4.002c0,1.597,0.294,2.941,0.878,4.037
		c0.582,1.096,1.362,1.912,2.34,2.447c0.975,0.536,2.046,0.807,3.214,0.807C134.29,51.405,135.386,51.132,136.409,50.582z"/>
	<path fill="#FFFFFF" stroke="#FFFFFF" stroke-width="0.5" stroke-miterlimit="10" d="M164.818,34.358v19.584h-3.249v-2.897
		c-0.623,1.002-1.483,1.784-2.593,2.344c-1.106,0.561-2.331,0.841-3.665,0.841c-1.525,0-2.894-0.318-4.106-0.948
		c-1.217-0.631-2.175-1.58-2.877-2.841c-0.705-1.263-1.055-2.8-1.055-4.609V34.358h3.216v11.041c0,1.93,0.487,3.413,1.465,4.449
		c0.975,1.037,2.31,1.557,4.003,1.557c1.739,0,3.107-0.536,4.107-1.608c1.002-1.071,1.504-2.634,1.504-4.681V34.358H164.818z"/>
	<path fill="#FFFFFF" stroke="#FFFFFF" stroke-width="0.5" stroke-miterlimit="10" d="M176.022,34.93
		c1.061-0.62,2.354-0.928,3.879-0.928v3.358h-0.857c-3.647,0-5.469,1.978-5.469,5.932v10.65h-3.253V34.358h3.253v3.181
		C174.146,36.418,174.96,35.551,176.022,34.93z"/>
	<path fill="#FFFFFF" stroke="#FFFFFF" stroke-width="0.5" stroke-miterlimit="10" d="M220.819,34.949
		c1.188,0.63,2.129,1.577,2.819,2.84c0.691,1.264,1.037,2.799,1.037,4.609v11.544h-3.215V42.864c0-1.955-0.483-3.448-1.448-4.486
		c-0.963-1.035-2.267-1.556-3.912-1.556c-1.69,0-3.036,0.543-4.039,1.629c-0.999,1.084-1.499,2.65-1.499,4.697v10.794h-3.219V42.864
		c0-1.955-0.48-3.448-1.445-4.486c-0.965-1.035-2.267-1.556-3.914-1.556c-1.69,0-3.038,0.543-4.038,1.629
		c-1.003,1.084-1.5,2.65-1.5,4.697v10.794h-3.254V34.358h3.254v2.824c0.644-1.023,1.504-1.812,2.589-2.36
		c1.085-0.548,2.281-0.821,3.593-0.821c1.643,0,3.098,0.369,4.359,1.108c1.262,0.738,2.206,1.821,2.824,3.251
		c0.547-1.383,1.453-2.455,2.714-3.217c1.265-0.762,2.669-1.143,4.218-1.143C218.268,34.002,219.627,34.317,220.819,34.949z"/>
	<path fill="#FFFFFF" stroke="#FFFFFF" stroke-width="0.5" stroke-miterlimit="10" d="M247.764,45.365h-15.654
		c0.117,1.929,0.78,3.436,1.984,4.518c1.203,1.086,2.66,1.628,4.375,1.628c1.409,0,2.58-0.327,3.523-0.981
		c0.94-0.656,1.602-1.531,1.981-2.627h3.502c-0.525,1.881-1.573,3.411-3.142,4.59c-1.573,1.181-3.526,1.771-5.865,1.771
		c-1.855,0-3.519-0.418-4.983-1.25c-1.467-0.833-2.614-2.021-3.446-3.558c-0.837-1.535-1.253-3.314-1.253-5.341
		c0-2.024,0.405-3.8,1.214-5.324c0.813-1.525,1.951-2.698,3.413-3.52c1.466-0.823,3.152-1.235,5.056-1.235
		c1.861,0,3.504,0.407,4.934,1.215c1.428,0.812,2.531,1.924,3.306,3.342c0.774,1.417,1.161,3.022,1.161,4.807
		C247.869,44.02,247.836,44.674,247.764,45.365z M243.69,39.523c-0.55-0.893-1.297-1.573-2.233-2.038
		c-0.944-0.465-1.984-0.696-3.129-0.696c-1.646,0-3.045,0.525-4.201,1.573c-1.154,1.047-1.814,2.502-1.979,4.359h12.36
		C244.509,41.482,244.237,40.417,243.69,39.523z"/>
	<path fill="#FFFFFF" stroke="#FFFFFF" stroke-width="0.5" stroke-miterlimit="10" d="M267.487,36.163
		c1.477,1.441,2.218,3.519,2.218,6.235v11.544h-3.216V42.864c0-1.955-0.491-3.448-1.466-4.486c-0.979-1.035-2.313-1.556-4.003-1.556
		c-1.715,0-3.08,0.538-4.09,1.609c-1.016,1.074-1.521,2.632-1.521,4.682v10.828h-3.253V34.358h3.253v2.788
		c0.642-1.001,1.521-1.776,2.628-2.324c1.105-0.548,2.325-0.821,3.66-0.821C264.08,34.002,266.012,34.722,267.487,36.163z"/>
	<path fill="#FFFFFF" stroke="#FFFFFF" stroke-width="0.5" stroke-miterlimit="10" d="M278.996,37.037v11.544
		c0,0.954,0.201,1.627,0.605,2.018c0.404,0.394,1.109,0.592,2.108,0.592h2.395v2.752h-2.93c-1.812,0-3.167-0.418-4.073-1.253
		c-0.905-0.833-1.358-2.201-1.358-4.108V37.037h-2.537v-2.679h2.537v-4.932h3.253v4.932h5.108v2.679H278.996z"/>
	<path fill="#FFFFFF" stroke="#FFFFFF" stroke-width="0.5" stroke-miterlimit="10" d="M291.594,53.013
		c-1.49-0.833-2.658-2.021-3.502-3.558c-0.847-1.535-1.271-3.314-1.271-5.341c0-2.002,0.436-3.771,1.305-5.307
		c0.869-1.536,2.056-2.715,3.555-3.536c1.504-0.823,3.181-1.235,5.04-1.235c1.86,0,3.537,0.412,5.041,1.235
		c1.499,0.821,2.683,1.995,3.555,3.52c0.866,1.524,1.302,3.299,1.302,5.324c0,2.026-0.447,3.806-1.338,5.341
		c-0.896,1.537-2.105,2.725-3.626,3.558c-1.529,0.832-3.219,1.25-5.075,1.25C294.742,54.263,293.08,53.845,291.594,53.013z
		 M299.866,50.582c1.023-0.547,1.849-1.369,2.481-2.465s0.948-2.431,0.948-4.003c0-1.571-0.312-2.906-0.93-4.002
		c-0.619-1.096-1.429-1.911-2.431-2.447c-0.999-0.538-2.086-0.804-3.249-0.804c-1.193,0-2.283,0.266-3.271,0.804
		c-0.99,0.536-1.784,1.351-2.378,2.447c-0.597,1.096-0.894,2.431-0.894,4.002c0,1.597,0.291,2.941,0.874,4.037
		c0.586,1.096,1.367,1.912,2.342,2.447c0.978,0.536,2.05,0.807,3.218,0.807C297.744,51.405,298.84,51.132,299.866,50.582z"/>
	<path fill="#FFFFFF" stroke="#FFFFFF" stroke-width="0.5" stroke-miterlimit="10" d="M316.608,34.93
		c1.057-0.62,2.351-0.928,3.875-0.928v3.358h-0.854c-3.647,0-5.473,1.978-5.473,5.932v10.65h-3.25V34.358h3.25v3.181
		C314.732,36.418,315.548,35.551,316.608,34.93z"/>
	<path fill="#FFFFFF" stroke="#FFFFFF" stroke-width="0.5" stroke-miterlimit="10" d="M351.859,34.949
		c1.191,0.63,2.133,1.577,2.823,2.84c0.692,1.264,1.034,2.799,1.034,4.609v11.544h-3.214V42.864c0-1.955-0.48-3.448-1.446-4.486
		c-0.965-1.035-2.272-1.556-3.913-1.556c-1.693,0-3.039,0.543-4.042,1.629c-0.997,1.084-1.499,2.65-1.499,4.697v10.794h-3.214
		V42.864c0-1.955-0.483-3.448-1.449-4.486c-0.966-1.035-2.269-1.556-3.914-1.556c-1.69,0-3.036,0.543-4.038,1.629
		c-0.998,1.084-1.5,2.65-1.5,4.697v10.794h-3.249V34.358h3.249v2.824c0.643-1.023,1.506-1.812,2.593-2.36
		c1.082-0.548,2.281-0.821,3.592-0.821c1.642,0,3.099,0.369,4.359,1.108c1.263,0.738,2.201,1.821,2.82,3.251
		c0.551-1.383,1.455-2.455,2.718-3.217c1.262-0.762,2.669-1.143,4.218-1.143C349.311,34.002,350.665,34.317,351.859,34.949z"/>
	<path fill="#FFFFFF" stroke="#FFFFFF" stroke-width="0.5" stroke-miterlimit="10" d="M361.045,38.807
		c0.807-1.51,1.922-2.686,3.338-3.52c1.419-0.833,2.998-1.251,4.74-1.251c1.712,0,3.201,0.371,4.464,1.109
		c1.262,0.737,2.204,1.667,2.822,2.788v-3.575h3.288v19.584h-3.288v-3.647c-0.643,1.146-1.603,2.092-2.875,2.842
		c-1.274,0.75-2.758,1.126-4.447,1.126c-1.743,0-3.313-0.427-4.721-1.284c-1.402-0.857-2.515-2.063-3.321-3.609
		c-0.809-1.549-1.218-3.313-1.218-5.29C359.827,42.078,360.236,40.322,361.045,38.807z M375.521,40.255
		c-0.601-1.096-1.404-1.935-2.414-2.52c-1.013-0.584-2.127-0.875-3.344-0.875c-1.212,0-2.323,0.286-3.321,0.857
		c-1,0.57-1.804,1.405-2.398,2.501c-0.593,1.096-0.889,2.383-0.889,3.86c0,1.5,0.296,2.804,0.889,3.913
		c0.595,1.106,1.398,1.953,2.398,2.537c0.998,0.585,2.109,0.876,3.321,0.876c1.217,0,2.331-0.291,3.344-0.876
		c1.01-0.584,1.813-1.431,2.414-2.537c0.594-1.109,0.889-2.399,0.889-3.878C376.409,42.638,376.114,41.352,375.521,40.255z"/>
	<path fill="#FFFFFF" stroke="#FFFFFF" stroke-width="0.5" stroke-miterlimit="10" d="M389.167,37.037v11.544
		c0,0.954,0.202,1.627,0.608,2.018c0.404,0.394,1.109,0.592,2.109,0.592h2.396v2.752h-2.932c-1.813,0-3.17-0.418-4.075-1.253
		c-0.908-0.833-1.358-2.201-1.358-4.108V37.037h-2.536v-2.679h2.536v-4.932h3.252v4.932h5.113v2.679H389.167z"/>
	<path fill="#FFFFFF" stroke="#FFFFFF" stroke-width="0.5" stroke-miterlimit="10" d="M415.97,45.365h-15.65
		c0.117,1.929,0.776,3.436,1.979,4.518c1.203,1.086,2.666,1.628,4.381,1.628c1.403,0,2.579-0.327,3.519-0.981
		c0.942-0.656,1.601-1.531,1.985-2.627h3.5c-0.523,1.881-1.569,3.411-3.143,4.59c-1.573,1.181-3.528,1.771-5.861,1.771
		c-1.86,0-3.522-0.418-4.984-1.25c-1.465-0.833-2.616-2.021-3.451-3.558c-0.834-1.535-1.25-3.314-1.25-5.341
		c0-2.024,0.404-3.8,1.217-5.324c0.81-1.525,1.945-2.698,3.41-3.52c1.466-0.823,3.15-1.235,5.059-1.235
		c1.856,0,3.503,0.407,4.929,1.215c1.431,0.812,2.533,1.924,3.306,3.342c0.776,1.417,1.167,3.022,1.167,4.807
		C416.081,44.02,416.04,44.674,415.97,45.365z M411.896,39.523c-0.551-0.893-1.292-1.573-2.234-2.038
		c-0.938-0.465-1.982-0.696-3.128-0.696c-1.641,0-3.041,0.525-4.195,1.573c-1.16,1.047-1.819,2.502-1.985,4.359h12.365
		C412.719,41.482,412.441,40.417,411.896,39.523z"/>
</g>
</svg>
