<?xml version="1.0" encoding="utf-8"?>
<!-- Generator: Adobe Illustrator 16.0.0, SVG Export Plug-In . SVG Version: 6.00 Build 0)  -->
<!DOCTYPE svg PUBLIC "-//W3C//DTD SVG 1.1//EN" "http://www.w3.org/Graphics/SVG/1.1/DTD/svg11.dtd">
<svg version="1.1" id="Capa_1" xmlns="http://www.w3.org/2000/svg" xmlns:xlink="http://www.w3.org/1999/xlink" x="0px" y="0px"
	 width="425.2px" height="141.73px" viewBox="0 0 425.2 141.73" enable-background="new 0 0 425.2 141.73" xml:space="preserve">
<circle fill-rule="evenodd" clip-rule="evenodd" stroke="#000000" stroke-width="2" stroke-miterlimit="10" cx="72.78" cy="75.137" r="37.463"/>
<g>
	<linearGradient id="SVGID_1_" gradientUnits="userSpaceOnUse" x1="51.834" y1="84.7061" x2="93.6831" y2="84.7061">
		<stop  offset="0" style="stop-color:#FFEF26"/>
		<stop  offset="0.0047" style="stop-color:#FBEF26"/>
		<stop  offset="0.0569" style="stop-color:#D7F328"/>
		<stop  offset="0.1139" style="stop-color:#B8F62A"/>
		<stop  offset="0.1785" style="stop-color:#9CF92B"/>
		<stop  offset="0.2515" style="stop-color:#86FB2C"/>
		<stop  offset="0.3366" style="stop-color:#75FD2D"/>
		<stop  offset="0.442" style="stop-color:#6AFE2E"/>
		<stop  offset="0.5898" style="stop-color:#63FF2E"/>
		<stop  offset="1" style="stop-color:#61FF2E"/>
	</linearGradient>
	<path fill-rule="evenodd" clip-rule="evenodd" fill="url(#SVGID_1_)" d="M51.836,78.061c-0.01-1.992,0.661-3.598,2.095-4.894
		c0.785-0.711,1.509-1.492,2.266-2.232c0.726-0.711,0.994-0.725,1.8-0.133c0.059,0.045,0.117,0.086,0.175,0.129
		c1.411,1.072,1.438,1.541,0.181,2.789c-0.719,0.712-1.48,1.384-2.113,2.181c-1.256,1.582-1.226,2.947,0.183,4.373
		c2.627,2.656,5.284,5.287,7.936,7.92c1.968,1.955,3.945,3.896,5.918,5.848c0.207,0.203,0.407,0.41,0.616,0.611
		c1.378,1.318,2.454,1.342,3.821,0.004c1.794-1.748,3.555-3.539,5.326-5.313c2.71-2.713,5.42-5.424,8.124-8.145
		c0.425-0.424,0.845-0.861,1.215-1.334c0.975-1.242,0.979-2.436,0.045-3.711c-0.758-1.039-1.751-1.859-2.633-2.784
		c-0.84-0.875-0.847-1.154,0.002-2.033c1.395-1.443,1.577-1.449,2.998-0.066c0.758,0.74,1.52,1.482,2.195,2.301
		c2.38,2.899,2.253,6.478-0.378,9.147c-2.812,2.85-5.665,5.654-8.486,8.498c-1.903,1.916-3.781,3.854-5.666,5.789
		c-1.187,1.215-2.58,2.023-4.3,2.146c-1.908,0.137-3.468-0.625-4.798-1.945c-3.768-3.734-7.54-7.465-11.309-11.197
		c-1.079-1.068-2.172-2.123-3.229-3.215C52.531,81.459,51.79,79.881,51.836,78.061z"/>
	<linearGradient id="SVGID_2_" gradientUnits="userSpaceOnUse" x1="83.8481" y1="81.4824" x2="107.0723" y2="81.4824">
		<stop  offset="0.0052" style="stop-color:#739FE3"/>
		<stop  offset="0.0921" style="stop-color:#5F8FE3"/>
		<stop  offset="0.2636" style="stop-color:#3D74E3"/>
		<stop  offset="0.4389" style="stop-color:#225EE3"/>
		<stop  offset="0.617" style="stop-color:#0F4FE3"/>
		<stop  offset="0.8" style="stop-color:#0446E3"/>
		<stop  offset="0.9948" style="stop-color:#0043E3"/>
	</linearGradient>
	<path fill-rule="evenodd" clip-rule="evenodd" fill="url(#SVGID_2_)" d="M107.02,80.916c0,0.195-0.032,0.406-0.12,0.59
		c-0.096,0.344-0.17,0.592-0.311,0.861c-0.526,1.516-1.518,2.719-2.636,3.838c-3.118,3.121-6.225,6.26-9.366,9.357
		c-1.956,1.936-4.26,2.615-6.883,1.496c-1.526-0.646-2.57-1.926-3.646-3.119c-0.193-0.205-0.225-0.475-0.204-0.756
		c0.043-0.59,1.452-2.02,2.055-2.072c0.505-0.033,0.795,0.313,1.054,0.666c0.516,0.68,1.053,1.313,1.785,1.775
		c1.194,0.742,2.065,0.676,3.043-0.303c3.463-3.463,6.927-6.928,10.378-10.398c1.528-1.549,1.581-3.184,0.097-4.797
		c-2.634-2.883-5.387-5.647-8.292-8.259c-0.009-0.012-0.009-0.012-0.009-0.012c-0.646-2.053-0.431-3.496-0.055-4.42
		c0.215,0.086,0.419,0.193,0.634,0.301c0.86,0.441,1.58,1.086,2.27,1.773c2.484,2.484,4.978,4.98,7.472,7.456
		c1.109,1.086,1.97,2.301,2.378,3.814l0.301,1.066C107.03,80.176,107.138,80.465,107.02,80.916z"/>
	<linearGradient id="SVGID_3_" gradientUnits="userSpaceOnUse" x1="50.5479" y1="57.6475" x2="62.2593" y2="57.6475">
		<stop  offset="0" style="stop-color:#FFEF26"/>
		<stop  offset="0.0178" style="stop-color:#FFEA21"/>
		<stop  offset="0.102" style="stop-color:#FED70F"/>
		<stop  offset="0.1886" style="stop-color:#FDCC04"/>
		<stop  offset="0.2809" style="stop-color:#FDC800"/>
		<stop  offset="0.6685" style="stop-color:#F18F34"/>
		<stop  offset="0.8876" style="stop-color:#E95F32"/>
		<stop  offset="1" style="stop-color:#E3312D"/>
	</linearGradient>
	<path fill-rule="evenodd" clip-rule="evenodd" fill="url(#SVGID_3_)" d="M56.387,51.792c-3.269,0-5.829,2.561-5.839,5.816
		c-0.011,3.281,2.635,5.936,5.862,5.895c3.226-0.031,5.85-2.666,5.85-5.873C62.259,54.417,59.625,51.792,56.387,51.792z
		 M56.41,59.974c-1.366,0.012-2.389-1.008-2.377-2.365c0.011-1.287,1.054-2.32,2.355-2.32c1.302,0,2.345,1.041,2.345,2.342
		C58.732,58.954,57.72,59.974,56.41,59.974z"/>
	<path fill-rule="evenodd" clip-rule="evenodd" fill="#00FF33" d="M72.508,45.06c-3.516,0-6.28,2.752-6.291,6.27
		c-0.011,3.527,2.839,6.377,6.313,6.346c3.474-0.045,6.292-2.871,6.302-6.334C78.832,47.89,75.982,45.06,72.508,45.06z
		 M72.53,53.878c-1.462,0-2.57-1.096-2.559-2.549c0.011-1.398,1.14-2.517,2.537-2.505c1.398,0,2.517,1.13,2.517,2.528
		C75.025,52.771,73.949,53.868,72.53,53.878z"/>
	<linearGradient id="SVGID_4_" gradientUnits="userSpaceOnUse" x1="83.0371" y1="57.6543" x2="94.7573" y2="57.6543">
		<stop  offset="0" style="stop-color:#0063E4"/>
		<stop  offset="0.9948" style="stop-color:#0063E3"/>
	</linearGradient>
	<path fill-rule="evenodd" clip-rule="evenodd" fill="url(#SVGID_4_)" d="M88.898,51.792c-3.236,0.012-5.861,2.625-5.861,5.838
		c0,3.207,2.667,5.887,5.851,5.887c3.258,0,5.882-2.648,5.87-5.908C94.749,54.36,92.156,51.78,88.898,51.792z M88.941,59.974
		c-1.333,0.025-2.409-1.031-2.409-2.344c0-1.266,1.054-2.334,2.344-2.342c1.323-0.021,2.409,1.041,2.399,2.354
		C91.275,58.923,90.232,59.966,88.941,59.974z"/>
	<path fill-rule="evenodd" clip-rule="evenodd" fill="#00FF33" d="M46.453,64.882"/>
	<path fill="none" d="M77.337,63.935c-1.279-1.27-2.828-1.895-4.613-1.928c-1.721-0.008-3.227,0.541-4.452,1.756
		c-1.474,1.461-2.926,2.947-4.41,4.387c-0.398,0.387-0.355,0.623,0.021,1c2.367,2.322,4.71,4.688,7.077,7.022
		c1.333,1.301,2.117,1.301,3.452,0c2.387-2.335,4.764-4.7,7.162-7.034c0.366-0.365,0.441-0.59,0.032-0.988
		C80.166,66.763,78.757,65.345,77.337,63.935z"/>
	<path fill="#00FF33" d="M60.895,65.966c-0.052,1.592,0.31,3.824,1.724,6.707c-0.766-2.582-0.618-6.008-0.479-7.67
		c-0.18,0.176-0.355,0.355-0.536,0.533C61.367,65.761,61.142,65.923,60.895,65.966z"/>
	<linearGradient id="SVGID_5_" gradientUnits="userSpaceOnUse" x1="38.4673" y1="72.8789" x2="62.8179" y2="72.8789">
		<stop  offset="0.0105" style="stop-color:#FFFFFF"/>
		<stop  offset="0.0405" style="stop-color:#FFFAE7"/>
		<stop  offset="0.1065" style="stop-color:#FFF1B7"/>
		<stop  offset="0.178" style="stop-color:#FFE88B"/>
		<stop  offset="0.2534" style="stop-color:#FFE066"/>
		<stop  offset="0.3338" style="stop-color:#FFDA46"/>
		<stop  offset="0.4207" style="stop-color:#FFD52C"/>
		<stop  offset="0.5166" style="stop-color:#FFD119"/>
		<stop  offset="0.6263" style="stop-color:#FFCE0B"/>
		<stop  offset="0.7617" style="stop-color:#FFCC02"/>
		<stop  offset="1" style="stop-color:#FFCC00"/>
	</linearGradient>
	<path fill="url(#SVGID_5_)" d="M62.714,72.979c0.035,0.035,0.07,0.07,0.104,0.105c-0.072-0.141-0.131-0.273-0.2-0.412
		C62.65,72.776,62.68,72.878,62.714,72.979z"/>
	<path opacity="0.4" d="M60.895,65.966c-0.206,0.053-0.441,0.01-0.7-0.16c-0.786-0.51-1.61-0.848-2.459-1.061
		c-0.155,1.402,1.89,4.494,3.739,6.994c0.413,0.414,0.828,0.824,1.24,1.24c-0.034-0.102-0.064-0.203-0.096-0.307
		C61.205,69.79,60.843,67.558,60.895,65.966z"/>
	<linearGradient id="SVGID_6_" gradientUnits="userSpaceOnUse" x1="60.8896" y1="69.5605" x2="93.9644" y2="69.5605">
		<stop  offset="0" style="stop-color:#FFEF26"/>
		<stop  offset="0.0047" style="stop-color:#FBEF26"/>
		<stop  offset="0.0569" style="stop-color:#D7F328"/>
		<stop  offset="0.1139" style="stop-color:#B8F62A"/>
		<stop  offset="0.1785" style="stop-color:#9CF92B"/>
		<stop  offset="0.2515" style="stop-color:#86FB2C"/>
		<stop  offset="0.3366" style="stop-color:#75FD2D"/>
		<stop  offset="0.442" style="stop-color:#6AFE2E"/>
		<stop  offset="0.5898" style="stop-color:#63FF2E"/>
		<stop  offset="1" style="stop-color:#61FF2E"/>
	</linearGradient>
	<path fill="url(#SVGID_6_)" d="M93.91,65.364c-2.764-1.26-5.56-1.324-8.324,0.301c-0.914,0.537-0.979,0.582-1.721-0.227
		c-1.355-1.473-2.785-2.881-4.291-4.203c-3.505-3.086-8.872-4.229-13.454-0.172c-1.401,1.248-2.665,2.621-3.981,3.939
		c-0.18,0.176-0.355,0.355-0.536,0.533c-0.236,0.225-0.461,0.387-0.708,0.43c-0.052,1.592,0.31,3.824,1.724,6.707
		c0.068,0.139,0.127,0.271,0.2,0.412c1.034,1.024,2.044,2.056,3.076,3.077c1.065,1.055,2.097,2.139,3.226,3.119
		c2.324,2,5.303,1.807,7.475-0.346c3.086-3.045,6.196-6.075,9.324-9.087c2.41-2.313,5.357-2.482,7.668-0.408
		c0.13,0.115,0.249,0.225,0.378,0.344C93.318,67.731,93.533,66.288,93.91,65.364z M81.574,69.138
		c-2.398,2.334-4.775,4.699-7.162,7.034c-1.334,1.301-2.119,1.301-3.452,0c-2.367-2.335-4.71-4.7-7.077-7.022
		c-0.376-0.377-0.419-0.613-0.021-1c1.484-1.439,2.936-2.926,4.41-4.387c1.226-1.215,2.731-1.764,4.452-1.756
		c1.785,0.033,3.334,0.658,4.613,1.928c1.42,1.41,2.829,2.828,4.27,4.215C82.016,68.548,81.94,68.772,81.574,69.138z"/>
	<linearGradient id="SVGID_7_" gradientUnits="userSpaceOnUse" x1="38.4883" y1="81.0479" x2="63.933" y2="81.0479">
		<stop  offset="0" style="stop-color:#FFEF26"/>
		<stop  offset="0.0178" style="stop-color:#FFEA21"/>
		<stop  offset="0.102" style="stop-color:#FED70F"/>
		<stop  offset="0.1886" style="stop-color:#FDCC04"/>
		<stop  offset="0.2809" style="stop-color:#FDC800"/>
		<stop  offset="0.6685" style="stop-color:#F18F34"/>
		<stop  offset="0.8876" style="stop-color:#E95F32"/>
		<stop  offset="1" style="stop-color:#E3312D"/>
	</linearGradient>
	<path fill="url(#SVGID_7_)" d="M61.474,71.739c-0.554-0.555-1.108-1.111-1.666-1.666c-1.56-1.537-3.378-2.395-5.625-1.891
		c-1.075,0.234-1.957,0.826-2.72,1.582c-2.678,2.633-5.345,5.29-8.002,7.968c-1.688,1.699-1.784,3.42-0.128,5.139
		c2.871,3.002,5.828,5.906,8.765,8.842c0.591,0.602,1.149,1.236,1.827,1.752c1.033,0.785,1.947,0.797,2.937-0.053
		c0.656-0.568,1.259-1.203,1.893-1.797c0.624-0.594,1.054-0.594,1.71-0.043c1.537,1.291,1.548,1.584,0.236,3.107
		c-0.902,1.057-1.882,2.002-3.216,2.508c-2.247,0.838-4.28,0.428-6.054-1.141c-2.431-2.139-4.592-4.549-6.883-6.83
		c-1.215-1.203-2.398-2.439-3.603-3.654c-0.924-0.914-1.613-1.98-2.065-3.195c-0.15-0.32-0.193-0.549-0.301-1.012
		c0-0.139-0.054-0.244-0.054-0.387c0-0.451-0.075-0.74-0.01-1.289c0-0.15,0.063-0.344,0.063-0.486
		c0.076-0.344,0.172-0.59,0.291-0.871c0.44-1.313,1.248-2.375,2.226-3.334c2.829-2.765,5.636-5.536,8.432-8.335
		c1.312-1.309,2.926-1.891,4.721-2.098c1.208-0.137,2.372-0.088,3.487,0.189C57.58,66.147,59.625,69.239,61.474,71.739z
		 M60.895,65.966c-0.206,0.053-0.441,0.01-0.7-0.16c-0.786-0.51-1.61-0.848-2.459-1.061c-0.155,1.402,1.89,4.494,3.739,6.994
		c0.413,0.414,0.828,0.824,1.24,1.24c-0.034-0.102-0.064-0.203-0.096-0.307C61.205,69.79,60.843,67.558,60.895,65.966z"/>
</g>
<g>
	<path stroke="#000000" stroke-width="0.75" stroke-miterlimit="10" d="M134.935,65.294l-10.063,24.581h-2.868l3.294-8.051
		l-6.74-16.53h3.08l5.246,13.542l5.183-13.542H134.935z"/>
	<path stroke="#000000" stroke-width="0.75" stroke-miterlimit="10" d="M140.744,81.213c-1.271-0.711-2.266-1.721-2.989-3.035
		c-0.723-1.309-1.083-2.83-1.083-4.56c0-1.707,0.372-3.215,1.114-4.527c0.742-1.311,1.753-2.316,3.034-3.018
		c1.28-0.703,2.714-1.053,4.301-1.053c1.584,0,3.018,0.35,4.297,1.053c1.281,0.701,2.293,1.701,3.034,3.002
		c0.742,1.303,1.114,2.818,1.114,4.543c0,1.729-0.38,3.251-1.143,4.56c-0.763,1.314-1.795,2.324-3.097,3.035
		c-1.301,0.711-2.743,1.068-4.331,1.068C143.432,82.281,142.015,81.924,140.744,81.213z M147.803,79.139
		c0.875-0.465,1.582-1.168,2.122-2.102c0.537-0.936,0.806-2.074,0.806-3.419c0-1.34-0.264-2.479-0.792-3.412
		c-0.528-0.936-1.221-1.633-2.074-2.09c-0.854-0.459-1.779-0.686-2.776-0.686c-1.016,0-1.946,0.227-2.789,0.686
		c-0.845,0.457-1.521,1.154-2.028,2.09c-0.509,0.934-0.763,2.072-0.763,3.412c0,1.366,0.249,2.513,0.748,3.446
		c0.497,0.936,1.162,1.633,1.997,2.09c0.833,0.457,1.748,0.688,2.743,0.688C145.994,79.842,146.929,79.607,147.803,79.139z"/>
	<path stroke="#000000" stroke-width="0.75" stroke-miterlimit="10" d="M172.047,65.294v16.712h-2.773v-2.471
		c-0.529,0.855-1.266,1.521-2.213,2c-0.943,0.479-1.986,0.717-3.125,0.717c-1.302,0-2.471-0.271-3.507-0.809
		c-1.038-0.541-1.855-1.348-2.454-2.426c-0.601-1.076-0.9-2.389-0.9-3.932v-9.792h2.744v9.425c0,1.645,0.416,2.91,1.251,3.795
		c0.833,0.885,1.971,1.328,3.416,1.328c1.483,0,2.652-0.457,3.507-1.373c0.854-0.914,1.281-2.246,1.281-3.994v-9.181H172.047z"/>
	<path stroke="#000000" stroke-width="0.75" stroke-miterlimit="10" d="M181.607,65.784c0.905-0.531,2.009-0.793,3.31-0.793v2.867
		h-0.731c-3.112,0-4.667,1.686-4.667,5.063v9.085h-2.774V65.294h2.774v2.713C180.007,67.054,180.703,66.312,181.607,65.784z"/>
	<path stroke="#000000" stroke-width="0.75" stroke-miterlimit="10" d="M219.835,65.798c1.015,0.537,1.816,1.346,2.408,2.426
		c0.59,1.076,0.884,2.387,0.884,3.932v9.851h-2.742v-9.452c0-1.67-0.414-2.943-1.236-3.828c-0.823-0.883-1.937-1.328-3.34-1.328
		c-1.442,0-2.591,0.463-3.445,1.389c-0.853,0.926-1.281,2.264-1.281,4.01v9.21h-2.746v-9.452c0-1.67-0.41-2.943-1.233-3.828
		c-0.824-0.883-1.937-1.328-3.341-1.328c-1.441,0-2.593,0.463-3.445,1.389c-0.854,0.926-1.28,2.264-1.28,4.01v9.21h-2.775V65.294
		h2.775v2.41c0.549-0.873,1.284-1.545,2.209-2.012c0.928-0.469,1.948-0.701,3.066-0.701c1.402,0,2.643,0.314,3.721,0.947
		c1.076,0.627,1.882,1.553,2.41,2.771c0.467-1.18,1.238-2.094,2.315-2.744c1.08-0.65,2.278-0.975,3.6-0.975
		C217.657,64.991,218.817,65.259,219.835,65.798z"/>
	<path stroke="#000000" stroke-width="0.75" stroke-miterlimit="10" d="M242.828,74.688H229.47c0.102,1.646,0.667,2.934,1.693,3.857
		c1.027,0.926,2.272,1.389,3.735,1.389c1.2,0,2.2-0.281,3.005-0.838c0.803-0.561,1.366-1.307,1.69-2.242h2.99
		c-0.449,1.604-1.343,2.91-2.683,3.918c-1.342,1.006-3.009,1.51-5.003,1.51c-1.584,0-3.004-0.357-4.255-1.068
		c-1.25-0.711-2.229-1.721-2.94-3.035c-0.715-1.309-1.068-2.83-1.068-4.56c0-1.725,0.346-3.24,1.035-4.543
		c0.694-1.301,1.664-2.301,2.912-3.002c1.251-0.703,2.69-1.053,4.316-1.053c1.587,0,2.988,0.348,4.21,1.037
		c1.218,0.691,2.159,1.641,2.819,2.85c0.661,1.211,0.992,2.578,0.992,4.104C242.92,73.538,242.89,74.098,242.828,74.688z
		 M239.353,69.7c-0.469-0.76-1.106-1.34-1.906-1.736c-0.805-0.398-1.692-0.596-2.669-0.596c-1.404,0-2.6,0.447-3.584,1.342
		c-0.985,0.895-1.549,2.137-1.69,3.721h10.548C240.051,71.374,239.818,70.466,239.353,69.7z"/>
	<path stroke="#000000" stroke-width="0.75" stroke-miterlimit="10" d="M259.66,66.833c1.26,1.23,1.892,3.004,1.892,5.322v9.851
		h-2.744v-9.452c0-1.67-0.419-2.943-1.25-3.828c-0.836-0.883-1.973-1.328-3.417-1.328c-1.463,0-2.628,0.461-3.489,1.375
		c-0.867,0.914-1.298,2.244-1.298,3.994v9.239h-2.775V65.294h2.775v2.381c0.549-0.855,1.298-1.516,2.242-1.982
		c0.944-0.469,1.984-0.701,3.123-0.701C256.752,64.991,258.4,65.604,259.66,66.833z"/>
	<path stroke="#000000" stroke-width="0.75" stroke-miterlimit="10" d="M269.481,67.581v9.851c0,0.814,0.171,1.391,0.516,1.723
		c0.346,0.338,0.947,0.506,1.8,0.506h2.045v2.346h-2.502c-1.546,0-2.702-0.355-3.476-1.066c-0.772-0.711-1.158-1.879-1.158-3.508
		v-9.851h-2.166v-2.287h2.166v-4.207h2.775v4.207h4.36v2.287H269.481z"/>
	<path stroke="#000000" stroke-width="0.75" stroke-miterlimit="10" d="M280.232,81.213c-1.271-0.711-2.27-1.721-2.989-3.035
		c-0.723-1.309-1.085-2.83-1.085-4.56c0-1.707,0.371-3.215,1.114-4.527c0.741-1.311,1.753-2.316,3.033-3.018
		c1.283-0.703,2.714-1.053,4.301-1.053c1.588,0,3.018,0.35,4.302,1.053c1.28,0.701,2.289,1.701,3.032,3.002
		c0.741,1.303,1.112,2.818,1.112,4.543c0,1.729-0.381,3.251-1.143,4.56c-0.763,1.314-1.795,2.324-3.095,3.035
		c-1.303,0.711-2.746,1.068-4.33,1.068C282.92,82.281,281.5,81.924,280.232,81.213z M287.291,79.139
		c0.873-0.465,1.579-1.168,2.118-2.102c0.54-0.936,0.809-2.074,0.809-3.419c0-1.34-0.266-2.479-0.794-3.412
		c-0.528-0.936-1.219-1.633-2.074-2.09c-0.853-0.459-1.778-0.686-2.772-0.686c-1.018,0-1.946,0.227-2.791,0.686
		c-0.844,0.457-1.522,1.154-2.029,2.09c-0.507,0.934-0.761,2.072-0.761,3.412c0,1.366,0.247,2.513,0.746,3.446
		c0.498,0.936,1.165,1.633,1.997,2.09c0.835,0.457,1.749,0.688,2.746,0.688C285.479,79.842,286.415,79.607,287.291,79.139z"/>
	<path stroke="#000000" stroke-width="0.75" stroke-miterlimit="10" d="M301.578,65.784c0.903-0.531,2.007-0.793,3.307-0.793v2.867
		h-0.729c-3.111,0-4.67,1.686-4.67,5.063v9.085h-2.772V65.294h2.772v2.713C299.977,67.054,300.673,66.312,301.578,65.784z"/>
	<path stroke="#000000" stroke-width="0.75" stroke-miterlimit="10" d="M331.659,65.798c1.018,0.537,1.82,1.346,2.412,2.426
		c0.589,1.076,0.881,2.387,0.881,3.932v9.851h-2.744v-9.452c0-1.67-0.409-2.943-1.233-3.828c-0.822-0.883-1.938-1.328-3.339-1.328
		c-1.446,0-2.593,0.463-3.447,1.389s-1.281,2.264-1.281,4.01v9.21h-2.743v-9.452c0-1.67-0.41-2.943-1.236-3.828
		c-0.823-0.883-1.935-1.328-3.341-1.328c-1.441,0-2.59,0.463-3.444,1.389c-0.853,0.926-1.281,2.264-1.281,4.01v9.21h-2.772V65.294
		h2.772v2.41c0.549-0.873,1.287-1.545,2.214-2.012c0.923-0.469,1.946-0.701,3.063-0.701c1.402,0,2.645,0.314,3.722,0.947
		c1.075,0.627,1.878,1.553,2.406,2.771c0.469-1.18,1.242-2.094,2.319-2.744c1.076-0.65,2.277-0.975,3.6-0.975
		C329.485,64.991,330.643,65.259,331.659,65.798z"/>
	<path stroke="#000000" stroke-width="0.75" stroke-miterlimit="10" d="M339.498,69.091c0.691-1.289,1.641-2.293,2.851-3.004
		c1.208-0.711,2.558-1.066,4.044-1.066c1.461,0,2.732,0.314,3.808,0.945c1.077,0.629,1.883,1.424,2.41,2.379v-3.051h2.806v16.712
		h-2.806v-3.111c-0.547,0.977-1.368,1.785-2.453,2.426c-1.089,0.639-2.355,0.961-3.797,0.961c-1.487,0-2.826-0.365-4.027-1.098
		c-1.197-0.73-2.144-1.758-2.835-3.08c-0.69-1.32-1.037-2.826-1.037-4.513C338.461,71.882,338.808,70.382,339.498,69.091z
		 M351.851,70.327c-0.512-0.936-1.198-1.652-2.06-2.15c-0.864-0.498-1.814-0.746-2.854-0.746c-1.035,0-1.981,0.244-2.834,0.73
		c-0.853,0.488-1.537,1.201-2.044,2.137c-0.509,0.934-0.762,2.033-0.762,3.293c0,1.28,0.253,2.392,0.762,3.339
		c0.507,0.945,1.191,1.668,2.044,2.166s1.799,0.746,2.834,0.746c1.039,0,1.989-0.248,2.854-0.746
		c0.861-0.498,1.548-1.221,2.06-2.166c0.507-0.947,0.76-2.047,0.76-3.312C352.61,72.36,352.357,71.263,351.851,70.327z"/>
	<path stroke="#000000" stroke-width="0.75" stroke-miterlimit="10" d="M363.497,67.581v9.851c0,0.814,0.175,1.391,0.519,1.723
		c0.346,0.338,0.947,0.506,1.8,0.506h2.045v2.346h-2.502c-1.546,0-2.705-0.355-3.479-1.066c-0.772-0.711-1.155-1.879-1.155-3.508
		v-9.851h-2.166v-2.287h2.166v-4.207h2.772v4.207h4.363v2.287H363.497z"/>
	<path stroke="#000000" stroke-width="0.75" stroke-miterlimit="10" d="M386.369,74.688h-13.356
		c0.102,1.646,0.665,2.934,1.691,3.857c1.026,0.926,2.274,1.389,3.737,1.389c1.198,0,2.202-0.281,3.005-0.838
		c0.801-0.561,1.364-1.307,1.692-2.242h2.988c-0.449,1.604-1.342,2.91-2.685,3.918c-1.343,1.006-3.01,1.51-5.001,1.51
		c-1.586,0-3.006-0.357-4.254-1.068c-1.251-0.711-2.233-1.721-2.943-3.035c-0.711-1.309-1.068-2.83-1.068-4.56
		c0-1.725,0.346-3.24,1.038-4.543c0.69-1.301,1.661-2.301,2.912-3.002c1.252-0.703,2.688-1.053,4.315-1.053
		c1.585,0,2.988,0.348,4.208,1.037c1.221,0.691,2.159,1.641,2.819,2.85c0.661,1.211,0.994,2.578,0.994,4.104
		C386.463,73.538,386.431,74.098,386.369,74.688z M382.894,69.7c-0.469-0.76-1.104-1.34-1.906-1.736
		c-0.803-0.398-1.693-0.596-2.669-0.596c-1.401,0-2.597,0.447-3.582,1.342c-0.987,0.895-1.551,2.137-1.693,3.721h10.553
		C383.596,71.374,383.359,70.466,382.894,69.7z"/>
</g>
</svg>
