<?xml version="1.0" encoding="UTF-8" standalone="no"?>
<!-- Created with Inkscape (http://www.inkscape.org/) -->

<svg
   version="1.1"
   id="svg2"
   width="377.94666"
   height="94.493469"
   viewBox="0 0 377.94666 94.493469"
   sodipodi:docname="mentormate-green-logo.ai"
   xmlns:inkscape="http://www.inkscape.org/namespaces/inkscape"
   xmlns:sodipodi="http://sodipodi.sourceforge.net/DTD/sodipodi-0.dtd"
   xmlns="http://www.w3.org/2000/svg"
   xmlns:svg="http://www.w3.org/2000/svg">
  <defs
     id="defs6">
    <clipPath
       clipPathUnits="userSpaceOnUse"
       id="clipPath16">
      <path
         d="M 0,70.87 H 283.46 V 0 H 0 Z"
         id="path14" />
    </clipPath>
    <linearGradient
       x1="0"
       y1="0"
       x2="1"
       y2="0"
       gradientUnits="userSpaceOnUse"
       gradientTransform="matrix(31.114746,0,0,-31.114746,24.413086,28.817383)"
       spreadMethod="pad"
       id="linearGradient44">
      <stop
         style="stop-opacity:1;stop-color:#ffef26"
         offset="0"
         id="stop38" />
      <stop
         style="stop-opacity:1;stop-color:#61ff2e"
         offset="0.20091254"
         id="stop40" />
      <stop
         style="stop-opacity:1;stop-color:#61ff2e"
         offset="1"
         id="stop42" />
    </linearGradient>
    <linearGradient
       x1="0"
       y1="0"
       x2="1"
       y2="0"
       gradientUnits="userSpaceOnUse"
       gradientTransform="matrix(17.266602,0,0,-17.266602,48.215332,31.213867)"
       spreadMethod="pad"
       id="linearGradient70">
      <stop
         style="stop-opacity:1;stop-color:#739fe3"
         offset="0"
         id="stop60" />
      <stop
         style="stop-opacity:1;stop-color:#739fe3"
         offset="0.0052356"
         id="stop62" />
      <stop
         style="stop-opacity:1;stop-color:#0043e3"
         offset="0.47420418"
         id="stop64" />
      <stop
         style="stop-opacity:1;stop-color:#0043e3"
         offset="0.994764"
         id="stop66" />
      <stop
         style="stop-opacity:1;stop-color:#0043e3"
         offset="1"
         id="stop68" />
    </linearGradient>
    <linearGradient
       x1="0"
       y1="0"
       x2="1"
       y2="0"
       gradientUnits="userSpaceOnUse"
       gradientTransform="matrix(8.7070313,0,0,-8.7070313,23.457031,48.933594)"
       spreadMethod="pad"
       id="linearGradient98">
      <stop
         style="stop-opacity:1;stop-color:#ffef26"
         offset="0"
         id="stop86" />
      <stop
         style="stop-opacity:1;stop-color:#fdc800"
         offset="0.13312686"
         id="stop88" />
      <stop
         style="stop-opacity:1;stop-color:#fdc800"
         offset="0.280899"
         id="stop90" />
      <stop
         style="stop-opacity:1;stop-color:#f18f34"
         offset="0.668539"
         id="stop92" />
      <stop
         style="stop-opacity:1;stop-color:#e95f32"
         offset="0.88764"
         id="stop94" />
      <stop
         style="stop-opacity:1;stop-color:#e3312d"
         offset="1"
         id="stop96" />
    </linearGradient>
    <clipPath
       clipPathUnits="userSpaceOnUse"
       id="clipPath108">
      <path
         d="M 0,70.87 H 283.46 V 0 H 0 Z"
         id="path106" />
    </clipPath>
    <linearGradient
       x1="0"
       y1="0"
       x2="1"
       y2="0"
       gradientUnits="userSpaceOnUse"
       gradientTransform="matrix(8.7138672,0,0,-8.7138672,47.612305,48.929687)"
       spreadMethod="pad"
       id="linearGradient134">
      <stop
         style="stop-opacity:1;stop-color:#0063e4"
         offset="0"
         id="stop126" />
      <stop
         style="stop-opacity:1;stop-color:#0063e3"
         offset="0.19986057"
         id="stop128" />
      <stop
         style="stop-opacity:1;stop-color:#0063e3"
         offset="0.994764"
         id="stop130" />
      <stop
         style="stop-opacity:1;stop-color:#0063e3"
         offset="1"
         id="stop132" />
    </linearGradient>
    <clipPath
       clipPathUnits="userSpaceOnUse"
       id="clipPath144">
      <path
         d="M 0,70.87 H 283.46 V 0 H 0 Z"
         id="path142" />
    </clipPath>
    <linearGradient
       x1="0"
       y1="0"
       x2="1"
       y2="0"
       gradientUnits="userSpaceOnUse"
       gradientTransform="matrix(18.09922,0,0,-18.09922,14.480469,37.609863)"
       spreadMethod="pad"
       id="linearGradient170">
      <stop
         style="stop-opacity:1;stop-color:#ffffff"
         offset="0"
         id="stop162" />
      <stop
         style="stop-opacity:1;stop-color:#ffffff"
         offset="0.0104712"
         id="stop164" />
      <stop
         style="stop-opacity:1;stop-color:#ffcc00"
         offset="0.31323217"
         id="stop166" />
      <stop
         style="stop-opacity:1;stop-color:#ffcc00"
         offset="1"
         id="stop168" />
    </linearGradient>
    <clipPath
       clipPathUnits="userSpaceOnUse"
       id="clipPath180">
      <path
         d="M 0,70.87 H 283.46 V 0 H 0 Z"
         id="path178" />
    </clipPath>
    <clipPath
       clipPathUnits="userSpaceOnUse"
       id="clipPath188">
      <path
         d="m 28.7939,43.6572 h 3.7081 v -6.122 h -3.7081 z"
         id="path186" />
    </clipPath>
    <linearGradient
       x1="0"
       y1="0"
       x2="1"
       y2="0"
       gradientUnits="userSpaceOnUse"
       gradientTransform="matrix(24.590332,0,0,-24.590332,31.145996,40.077637)"
       spreadMethod="pad"
       id="linearGradient216">
      <stop
         style="stop-opacity:1;stop-color:#ffef26"
         offset="0"
         id="stop210" />
      <stop
         style="stop-opacity:1;stop-color:#61ff2e"
         offset="0.20091254"
         id="stop212" />
      <stop
         style="stop-opacity:1;stop-color:#61ff2e"
         offset="1"
         id="stop214" />
    </linearGradient>
    <linearGradient
       x1="0"
       y1="0"
       x2="1"
       y2="0"
       gradientUnits="userSpaceOnUse"
       gradientTransform="matrix(18.917557,0,0,-18.917557,14.490723,31.537109)"
       spreadMethod="pad"
       id="linearGradient244">
      <stop
         style="stop-opacity:1;stop-color:#ffef26"
         offset="0"
         id="stop232" />
      <stop
         style="stop-opacity:1;stop-color:#fdc800"
         offset="0.13312686"
         id="stop234" />
      <stop
         style="stop-opacity:1;stop-color:#fdc800"
         offset="0.280899"
         id="stop236" />
      <stop
         style="stop-opacity:1;stop-color:#f18f34"
         offset="0.668539"
         id="stop238" />
      <stop
         style="stop-opacity:1;stop-color:#e95f32"
         offset="0.88764"
         id="stop240" />
      <stop
         style="stop-opacity:1;stop-color:#e3312d"
         offset="1"
         id="stop242" />
    </linearGradient>
    <clipPath
       clipPathUnits="userSpaceOnUse"
       id="clipPath254">
      <path
         d="M 0,70.87 H 283.46 V 0 H 0 Z"
         id="path252" />
    </clipPath>
  </defs>
  <sodipodi:namedview
     id="namedview4"
     pagecolor="#ffffff"
     bordercolor="#000000"
     borderopacity="0.25"
     inkscape:showpageshadow="2"
     inkscape:pageopacity="0.0"
     inkscape:pagecheckerboard="0"
     inkscape:deskcolor="#d1d1d1" />
  <g
     id="g8"
     inkscape:groupmode="layer"
     inkscape:label="mentormate-green-logo"
     transform="matrix(1.3333333,0,0,-1.3333333,0,94.493467)">
    <g
       id="g10">
      <g
         id="g12"
         clip-path="url(#clipPath16)">
        <g
           id="g18"
           transform="translate(67.8394,35.9326)">
          <path
             d="m 0,0 c 0,-15.382 -12.47,-27.854 -27.853,-27.854 -15.384,0 -27.854,12.472 -27.854,27.854 0,15.384 12.47,27.854 27.854,27.854 C -12.47,27.854 0,15.384 0,0"
             style="fill:#000000;fill-opacity:1;fill-rule:evenodd;stroke:none"
             id="path20" />
        </g>
        <g
           id="g22"
           transform="translate(67.8394,35.9326)">
          <path
             d="m 0,0 c 0,-15.382 -12.47,-27.854 -27.853,-27.854 -15.384,0 -27.854,12.472 -27.854,27.854 0,15.384 12.47,27.854 27.854,27.854 C -12.47,27.854 0,15.384 0,0 Z"
             style="fill:none;stroke:#000000;stroke-width:4;stroke-linecap:butt;stroke-linejoin:miter;stroke-miterlimit:10;stroke-dasharray:none;stroke-opacity:1"
             id="path24" />
        </g>
      </g>
    </g>
    <g
       id="g26">
      <g
         id="g28">
        <g
           id="g34">
          <g
             id="g36">
            <path
               d="M 50.406,38.757 C 49.775,38.103 49.78,37.895 50.404,37.244 v 0 c 0.656,-0.686 1.394,-1.297 1.958,-2.068 v 0 c 0.694,-0.948 0.69,-1.836 -0.034,-2.76 v 0 C 52.052,32.065 51.741,31.74 51.425,31.424 v 0 c -2.01,-2.022 -4.025,-4.037 -6.04,-6.055 v 0 c -1.317,-1.318 -2.626,-2.649 -3.96,-3.95 v 0 c -1.017,-0.994 -1.817,-0.976 -2.841,0.004 v 0 c -0.155,0.149 -0.304,0.303 -0.458,0.454 v 0 c -1.467,1.45 -2.937,2.894 -4.4,4.347 v 0 c -1.972,1.959 -3.947,3.913 -5.901,5.889 v 0 c -1.047,1.06 -1.07,2.075 -0.136,3.252 v 0 c 0.471,0.591 1.036,1.091 1.571,1.621 v 0 c 0.934,0.927 0.915,1.276 -0.134,2.071 v 0 c -0.044,0.034 -0.087,0.064 -0.131,0.097 v 0 c -0.599,0.441 -0.798,0.43 -1.338,-0.099 v 0 c -0.563,-0.55 -1.101,-1.131 -1.685,-1.659 v 0 C 24.907,36.433 24.407,35.24 24.414,33.759 v 0 c -0.034,-1.354 0.518,-2.527 1.478,-3.521 v 0 c 0.786,-0.812 1.598,-1.596 2.4,-2.39 v 0 c 2.803,-2.775 5.607,-5.55 8.409,-8.324 v 0 c 0.989,-0.983 2.148,-1.548 3.567,-1.447 v 0 c 1.279,0.091 2.315,0.693 3.197,1.596 v 0 c 1.401,1.438 2.797,2.88 4.213,4.304 v 0 c 2.097,2.114 4.218,4.2 6.308,6.318 v 0 c 1.956,1.985 2.051,4.646 0.281,6.799 v 0 c -0.503,0.61 -1.068,1.161 -1.631,1.711 v 0 c -0.522,0.508 -0.819,0.765 -1.111,0.765 v 0 c -0.3,-10e-4 -0.594,-0.27 -1.119,-0.813"
               style="fill:url(#linearGradient44);stroke:none"
               id="path46" />
          </g>
        </g>
      </g>
    </g>
    <g
       id="g48">
      <g
         id="g50">
        <g
           id="g56">
          <g
             id="g58">
            <path
               d="m 55.736,39.911 0.007,-0.009 c 2.16,-1.941 4.207,-3.996 6.165,-6.139 v 0 c 1.104,-1.199 1.064,-2.415 -0.072,-3.567 v 0 C 59.27,27.616 56.695,25.04 54.12,22.465 v 0 c -0.727,-0.727 -1.375,-0.777 -2.262,-0.226 v 0 c -0.544,0.345 -0.943,0.815 -1.327,1.32 v 0 c -0.192,0.264 -0.408,0.52 -0.784,0.497 v 0 c -0.449,-0.04 -1.495,-1.104 -1.528,-1.542 v 0 c -0.015,-0.209 0.008,-0.408 0.152,-0.562 v 0 c 0.801,-0.887 1.576,-1.838 2.711,-2.319 v 0 c 1.951,-0.831 3.663,-0.326 5.118,1.112 v 0 c 2.335,2.304 4.644,4.637 6.963,6.958 v 0 c 0.832,0.832 1.569,1.726 1.959,2.854 v 0 c 0.105,0.199 0.16,0.383 0.232,0.64 v 0 c 0.065,0.136 0.089,0.293 0.089,0.439 v 0 c 0.088,0.335 0.008,0.55 -0.041,0.847 v 0 l -0.223,0.794 c -0.304,1.125 -0.943,2.027 -1.769,2.836 v 0 c -1.854,1.839 -3.708,3.695 -5.555,5.542 v 0 c -0.513,0.511 -1.049,0.991 -1.688,1.317 v 0 c -0.16,0.081 -0.311,0.161 -0.471,0.224 v 0 c -0.28,-0.686 -0.44,-1.758 0.04,-3.285"
               style="fill:url(#linearGradient70);stroke:none"
               id="path72" />
          </g>
        </g>
      </g>
    </g>
    <g
       id="g74">
      <g
         id="g76">
        <g
           id="g82">
          <g
             id="g84">
            <path
               d="m 23.457,48.963 c -0.008,-2.439 1.959,-4.413 4.357,-4.383 v 0 c 2.399,0.025 4.35,1.983 4.35,4.367 v 0 c 0,2.389 -1.959,4.341 -4.366,4.341 v 0 c -2.431,0 -4.333,-1.904 -4.341,-4.325 m 2.591,0 c 0.008,0.958 0.783,1.726 1.75,1.726 v 0 c 0.968,0 1.744,-0.774 1.744,-1.742 v 0 c 0,-0.984 -0.753,-1.743 -1.728,-1.743 v 0 c -0.005,0 -0.011,0 -0.017,0 v 0 c -1.007,0 -1.758,0.756 -1.749,1.759"
               style="fill:url(#linearGradient98);stroke:none"
               id="path100" />
          </g>
        </g>
      </g>
    </g>
    <g
       id="g102">
      <g
         id="g104"
         clip-path="url(#clipPath108)">
        <g
           id="g110"
           transform="translate(39.8003,51.7373)">
          <path
             d="m 0,0 c -1.087,0 -1.911,0.813 -1.903,1.895 0.008,1.04 0.848,1.871 1.886,1.862 1.04,0 1.872,-0.84 1.872,-1.88 C 1.855,0.822 1.055,0.007 0,0 m -0.017,6.556 c -2.613,0 -4.669,-2.046 -4.676,-4.661 -0.009,-2.624 2.11,-4.742 4.693,-4.718 2.583,0.033 4.678,2.135 4.686,4.709 0,2.566 -2.119,4.67 -4.703,4.67"
             style="fill:#01ff33;fill-opacity:1;fill-rule:evenodd;stroke:none"
             id="path112" />
        </g>
      </g>
    </g>
    <g
       id="g114">
      <g
         id="g116">
        <g
           id="g122">
          <g
             id="g124">
            <path
               d="m 51.97,53.288 c -2.406,-0.009 -4.357,-1.952 -4.357,-4.341 v 0 c 0,-2.384 1.982,-4.375 4.349,-4.375 v 0 c 2.422,0 4.373,1.967 4.365,4.391 v 0 c -0.007,2.41 -1.926,4.325 -4.34,4.325 v 0 c -0.006,0 -0.012,0 -0.017,0 m -1.759,-4.341 c 0,0.942 0.784,1.736 1.742,1.742 v 0 c 0.984,0.015 1.791,-0.774 1.784,-1.751 v 0 c 0,-0.952 -0.775,-1.728 -1.736,-1.734 v 0 c -0.011,0 -0.022,0 -0.033,0 v 0 c -0.976,0 -1.757,0.779 -1.757,1.743"
               style="fill:url(#linearGradient134);stroke:none"
               id="path136" />
          </g>
        </g>
      </g>
    </g>
    <g
       id="g138">
      <g
         id="g140"
         clip-path="url(#clipPath144)">
        <g
           id="g146"
           transform="translate(31.1494,42.749)">
          <path
             d="M 0,0 C -0.039,-1.183 0.23,-2.843 1.282,-4.985 0.712,-3.066 0.822,-0.52 0.925,0.717 0.792,0.586 0.662,0.452 0.527,0.32 0.351,0.153 0.184,0.033 0,0"
             style="fill:#01ff33;fill-opacity:1;fill-rule:nonzero;stroke:none"
             id="path148" />
        </g>
      </g>
    </g>
    <g
       id="g150">
      <g
         id="g152">
        <g
           id="g158">
          <g
             id="g160">
            <path
               d="m 32.502,37.535 c 0.027,-0.027 0.052,-0.053 0.078,-0.079 v 0 c -0.054,0.106 -0.098,0.205 -0.148,0.308 v 0 c 0.023,-0.077 0.045,-0.154 0.07,-0.229"
               style="fill:url(#linearGradient170);stroke:none"
               id="path172" />
          </g>
        </g>
      </g>
    </g>
    <g
       id="g174">
      <g
         id="g176"
         clip-path="url(#clipPath180)">
        <g
           id="g182">
          <g
             id="g184" />
          <g
             id="g196">
            <g
               clip-path="url(#clipPath188)"
               opacity="0.399994"
               id="g194">
              <g
                 transform="translate(31.1494,42.749)"
                 id="g192">
                <path
                   d="m 0,0 c -0.153,-0.039 -0.328,-0.007 -0.521,0.12 -0.584,0.378 -1.196,0.63 -1.828,0.788 -0.115,-1.042 1.405,-3.341 2.78,-5.2 C 0.737,-4.6 1.046,-4.904 1.353,-5.214 1.327,-5.139 1.305,-5.062 1.282,-4.985 0.23,-2.843 -0.039,-1.183 0,0"
                   style="fill:#000000;fill-opacity:1;fill-rule:nonzero;stroke:none"
                   id="path190" />
              </g>
            </g>
          </g>
        </g>
      </g>
    </g>
    <g
       id="g198">
      <g
         id="g200">
        <g
           id="g206">
          <g
             id="g208">
            <path
               d="m 35.034,46.394 c -1.041,-0.927 -1.981,-1.947 -2.959,-2.929 v 0 c -0.134,-0.13 -0.264,-0.264 -0.399,-0.395 v 0 c -0.175,-0.168 -0.343,-0.288 -0.527,-0.321 v 0 c -0.038,-1.183 0.231,-2.843 1.283,-4.985 v 0 c 0.05,-0.103 0.094,-0.202 0.148,-0.308 v 0 c 0.768,-0.76 1.519,-1.526 2.287,-2.287 v 0 c 0.792,-0.784 1.559,-1.59 2.398,-2.318 v 0 c 1.728,-1.488 3.943,-1.343 5.557,0.256 v 0 c 2.295,2.264 4.607,4.516 6.933,6.755 v 0 c 1.791,1.72 3.982,1.847 5.7,0.305 v 0 c 0.098,-0.087 0.185,-0.168 0.281,-0.256 v 0 c -0.48,1.527 -0.32,2.599 -0.04,3.285 v 0 c -2.055,0.936 -4.134,0.986 -6.189,-0.224 v 0 c -0.679,-0.398 -0.728,-0.431 -1.28,0.169 v 0 c -1.007,1.095 -2.07,2.143 -3.19,3.125 v 0 c -1.42,1.251 -3.252,2.072 -5.176,2.072 v 0 c -1.606,10e-4 -3.277,-0.572 -4.827,-1.944 m 3.599,-11.232 c -1.759,1.735 -3.501,3.494 -5.261,5.221 v 0 c -0.28,0.28 -0.312,0.456 -0.016,0.743 v 0 c 1.103,1.071 2.182,2.176 3.279,3.262 v 0 c 0.91,0.903 2.03,1.311 3.31,1.304 v 0 c 1.326,-0.024 2.478,-0.489 3.429,-1.432 v 0 c 1.055,-1.048 2.103,-2.103 3.174,-3.134 v 0 c 0.304,-0.296 0.248,-0.463 -0.023,-0.734 v 0 c -1.783,-1.736 -3.55,-3.495 -5.326,-5.23 v 0 C 40.703,34.679 40.31,34.437 39.916,34.437 v 0 c -0.394,0 -0.787,0.242 -1.283,0.725"
               style="fill:url(#linearGradient216);stroke:none"
               id="path218" />
          </g>
        </g>
      </g>
    </g>
    <g
       id="g220">
      <g
         id="g222">
        <g
           id="g228">
          <g
             id="g230">
            <path
               d="m 26.207,43.798 c -1.335,-0.154 -2.534,-0.586 -3.51,-1.56 v 0 c -2.078,-2.08 -4.165,-4.141 -6.268,-6.196 v 0 c -0.728,-0.713 -1.328,-1.503 -1.656,-2.478 v 0 c -0.088,-0.209 -0.159,-0.393 -0.216,-0.648 v 0 c 0,-0.106 -0.046,-0.25 -0.046,-0.361 v 0 c -0.049,-0.409 0.007,-0.623 0.007,-0.96 v 0 c 0,-0.105 0.039,-0.183 0.039,-0.287 v 0 c 0.081,-0.344 0.112,-0.513 0.225,-0.751 v 0 c 0.335,-0.905 0.847,-1.697 1.535,-2.376 v 0 c 0.895,-0.904 1.776,-1.823 2.678,-2.718 v 0 c 1.704,-1.696 3.311,-3.488 5.118,-5.077 v 0 c 1.318,-1.167 2.83,-1.472 4.501,-0.849 v 0 c 0.992,0.377 1.72,1.079 2.391,1.864 v 0 c 0.976,1.134 0.968,1.351 -0.176,2.312 v 0 c -0.487,0.408 -0.807,0.408 -1.271,-0.032 v 0 c -0.472,-0.442 -0.92,-0.914 -1.408,-1.337 v 0 c -0.735,-0.632 -1.415,-0.623 -2.182,-0.039 v 0 c -0.504,0.383 -0.92,0.856 -1.359,1.302 v 0 c -2.184,2.183 -4.382,4.343 -6.516,6.575 v 0 c -1.232,1.278 -1.161,2.556 0.094,3.82 v 0 c 1.976,1.991 3.958,3.965 5.95,5.924 v 0 c 0.567,0.561 1.223,1.001 2.022,1.175 v 0 c 1.671,0.376 3.023,-0.262 4.183,-1.405 v 0 c 0.415,-0.413 0.826,-0.827 1.238,-1.239 v 0 c -1.321,1.787 -2.777,3.979 -2.786,5.072 v 0 c -0.001,0.045 0.002,0.087 0.006,0.128 v 0 c -0.535,0.133 -1.086,0.196 -1.65,0.196 v 0 c -0.31,0 -0.625,-0.019 -0.943,-0.055 m 2.587,-0.269 c 0.009,-1.093 1.465,-3.285 2.786,-5.072 v 0 c 0.307,-0.308 0.616,-0.612 0.922,-0.922 v 0 c -0.025,0.075 -0.047,0.152 -0.07,0.229 v 0 c -1.052,2.142 -1.321,3.802 -1.283,4.985 v 0 c -0.152,-0.039 -0.328,-0.007 -0.52,0.12 v 0 c -0.584,0.378 -1.197,0.63 -1.829,0.788 v 0 c -0.004,-0.041 -0.007,-0.083 -0.006,-0.128"
               style="fill:url(#linearGradient244);stroke:none"
               id="path246" />
          </g>
        </g>
      </g>
    </g>
    <g
       id="g248">
      <g
         id="g250"
         clip-path="url(#clipPath254)">
        <g
           id="g256"
           transform="translate(87.1973,43.249)">
          <path
             d="m 0,0 -7.481,-18.274 h -2.132 l 2.448,5.985 L -12.175,0 h 2.29 l 3.9,-10.067 L -2.132,0 Z"
             style="fill:#01ff33;fill-opacity:1;fill-rule:nonzero;stroke:none"
             id="path258" />
        </g>
        <g
           id="g260"
           transform="translate(87.1973,43.249)">
          <path
             d="m 0,0 -7.481,-18.274 h -2.132 l 2.448,5.985 L -12.175,0 h 2.29 l 3.9,-10.067 L -2.132,0 Z"
             style="fill:none;stroke:#01ff33;stroke-width:0.75;stroke-linecap:butt;stroke-linejoin:miter;stroke-miterlimit:10;stroke-dasharray:none;stroke-opacity:1"
             id="path262" />
        </g>
        <g
           id="g264"
           transform="translate(96.7646,32.9561)">
          <path
             d="m 0,0 c 0.65,0.347 1.176,0.868 1.577,1.563 0.399,0.696 0.6,1.542 0.6,2.541 C 2.177,5.1 1.98,5.946 1.588,6.641 1.195,7.336 0.68,7.854 0.046,8.194 -0.589,8.536 -1.276,8.705 -2.018,8.705 -2.773,8.705 -3.465,8.536 -4.092,8.194 -4.72,7.854 -5.222,7.336 -5.6,6.641 -5.978,5.946 -6.167,5.1 -6.167,4.104 c 0,-1.014 0.186,-1.867 0.557,-2.562 0.369,-0.695 0.863,-1.213 1.485,-1.554 0.619,-0.34 1.299,-0.51 2.039,-0.51 0.741,0 1.437,0.173 2.086,0.522 m -5.249,-1.542 c -0.945,0.528 -1.684,1.28 -2.222,2.257 -0.537,0.973 -0.804,2.103 -0.804,3.389 0,1.269 0.276,2.39 0.828,3.366 0.551,0.974 1.303,1.722 2.256,2.244 0.951,0.522 2.017,0.783 3.197,0.783 1.178,0 2.244,-0.261 3.196,-0.783 C 2.154,9.192 2.906,8.448 3.458,7.481 4.009,6.514 4.286,5.387 4.286,4.104 4.286,2.818 4.003,1.688 3.436,0.715 2.869,-0.262 2.101,-1.014 1.134,-1.542 c -0.967,-0.528 -2.04,-0.794 -3.22,-0.794 -1.164,0 -2.217,0.266 -3.163,0.794"
             style="fill:#01ff33;fill-opacity:1;fill-rule:nonzero;stroke:none"
             id="path266" />
        </g>
        <g
           id="g268"
           transform="translate(96.7646,32.9561)">
          <path
             d="m 0,0 c 0.65,0.347 1.176,0.868 1.577,1.563 0.399,0.696 0.6,1.542 0.6,2.541 C 2.177,5.1 1.98,5.946 1.588,6.641 1.195,7.336 0.68,7.854 0.046,8.194 -0.589,8.536 -1.276,8.705 -2.018,8.705 -2.773,8.705 -3.465,8.536 -4.092,8.194 -4.72,7.854 -5.222,7.336 -5.6,6.641 -5.978,5.946 -6.167,5.1 -6.167,4.104 c 0,-1.014 0.186,-1.867 0.557,-2.562 0.369,-0.695 0.863,-1.213 1.485,-1.554 0.619,-0.34 1.299,-0.51 2.039,-0.51 0.741,0 1.437,0.173 2.086,0.522 z m -5.249,-1.542 c -0.945,0.528 -1.684,1.28 -2.222,2.257 -0.537,0.973 -0.804,2.103 -0.804,3.389 0,1.269 0.276,2.39 0.828,3.366 0.551,0.974 1.303,1.722 2.256,2.244 0.951,0.522 2.017,0.783 3.197,0.783 1.178,0 2.244,-0.261 3.196,-0.783 C 2.154,9.192 2.906,8.448 3.458,7.481 4.009,6.514 4.286,5.387 4.286,4.104 4.286,2.818 4.003,1.688 3.436,0.715 2.869,-0.262 2.101,-1.014 1.134,-1.542 c -0.967,-0.528 -2.04,-0.794 -3.22,-0.794 -1.164,0 -2.217,0.266 -3.163,0.794 z"
             style="fill:none;stroke:#01ff33;stroke-width:0.75;stroke-linecap:butt;stroke-linejoin:miter;stroke-miterlimit:10;stroke-dasharray:none;stroke-opacity:1"
             id="path270" />
        </g>
        <g
           id="g272"
           transform="translate(114.7896,43.249)">
          <path
             d="m 0,0 v -12.425 h -2.062 v 1.838 c -0.394,-0.637 -0.941,-1.132 -1.645,-1.487 -0.702,-0.356 -1.477,-0.533 -2.324,-0.533 -0.967,0 -1.837,0.202 -2.607,0.601 -0.772,0.402 -1.379,1.002 -1.824,1.803 -0.447,0.801 -0.669,1.776 -0.669,2.924 V 0 h 2.04 v -7.006 c 0,-1.223 0.309,-2.164 0.929,-2.822 0.62,-0.658 1.466,-0.987 2.54,-0.987 1.103,0 1.972,0.339 2.607,1.02 0.635,0.68 0.953,1.671 0.953,2.97 l 0,6.825 z"
             style="fill:#01ff33;fill-opacity:1;fill-rule:nonzero;stroke:none"
             id="path274" />
        </g>
        <g
           id="g276"
           transform="translate(114.7896,43.249)">
          <path
             d="m 0,0 v -12.425 h -2.062 v 1.838 c -0.394,-0.637 -0.941,-1.132 -1.645,-1.487 -0.702,-0.356 -1.477,-0.533 -2.324,-0.533 -0.967,0 -1.837,0.202 -2.607,0.601 -0.772,0.402 -1.379,1.002 -1.824,1.803 -0.447,0.801 -0.669,1.776 -0.669,2.924 V 0 h 2.04 v -7.006 c 0,-1.223 0.309,-2.164 0.929,-2.822 0.62,-0.658 1.466,-0.987 2.54,-0.987 1.103,0 1.972,0.339 2.607,1.02 0.635,0.68 0.953,1.671 0.953,2.97 l 0,6.825 z"
             style="fill:none;stroke:#01ff33;stroke-width:0.75;stroke-linecap:butt;stroke-linejoin:miter;stroke-miterlimit:10;stroke-dasharray:none;stroke-opacity:1"
             id="path278" />
        </g>
        <g
           id="g280"
           transform="translate(121.8979,42.8848)">
          <path
             d="M 0,0 C 0.673,0.395 1.494,0.59 2.461,0.59 V -1.542 H 1.917 c -2.314,0 -3.47,-1.254 -3.47,-3.764 v -6.755 H -3.616 V 0.364 h 2.063 V -1.653 C -1.19,-0.943 -0.672,-0.393 0,0"
             style="fill:#01ff33;fill-opacity:1;fill-rule:nonzero;stroke:none"
             id="path282" />
        </g>
        <g
           id="g284"
           transform="translate(121.8979,42.8848)">
          <path
             d="M 0,0 C 0.673,0.395 1.494,0.59 2.461,0.59 V -1.542 H 1.917 c -2.314,0 -3.47,-1.254 -3.47,-3.764 v -6.755 H -3.616 V 0.364 h 2.063 V -1.653 C -1.19,-0.943 -0.672,-0.393 0,0 Z"
             style="fill:none;stroke:#01ff33;stroke-width:0.75;stroke-linecap:butt;stroke-linejoin:miter;stroke-miterlimit:10;stroke-dasharray:none;stroke-opacity:1"
             id="path286" />
        </g>
        <g
           id="g288"
           transform="translate(150.3193,42.874)">
          <path
             d="M 0,0 C 0.754,-0.399 1.352,-1 1.791,-1.803 2.229,-2.604 2.447,-3.577 2.447,-4.727 V -12.05 H 0.408 v 7.028 c 0,1.241 -0.306,2.188 -0.918,2.846 -0.613,0.656 -1.439,0.988 -2.484,0.988 -1.072,0 -1.926,-0.345 -2.561,-1.034 -0.634,-0.688 -0.953,-1.682 -0.953,-2.98 v -6.848 h -2.041 v 7.028 c 0,1.241 -0.305,2.188 -0.917,2.846 -0.613,0.656 -1.44,0.988 -2.484,0.988 -1.072,0 -1.927,-0.345 -2.561,-1.034 -0.635,-0.688 -0.952,-1.682 -0.952,-2.98 v -6.848 h -2.064 V 0.375 h 2.064 v -1.792 c 0.408,0.649 0.955,1.149 1.642,1.496 0.69,0.349 1.448,0.522 2.279,0.522 1.043,0 1.965,-0.235 2.767,-0.705 0.8,-0.466 1.4,-1.155 1.793,-2.061 0.345,0.878 0.92,1.558 1.72,2.04 0.803,0.484 1.694,0.726 2.676,0.726 0.967,0 1.83,-0.2 2.586,-0.601"
             style="fill:#01ff33;fill-opacity:1;fill-rule:nonzero;stroke:none"
             id="path290" />
        </g>
        <g
           id="g292"
           transform="translate(150.3193,42.874)">
          <path
             d="M 0,0 C 0.754,-0.399 1.352,-1 1.791,-1.803 2.229,-2.604 2.447,-3.577 2.447,-4.727 V -12.05 H 0.408 v 7.028 c 0,1.241 -0.306,2.188 -0.918,2.846 -0.613,0.656 -1.439,0.988 -2.484,0.988 -1.072,0 -1.926,-0.345 -2.561,-1.034 -0.634,-0.688 -0.953,-1.682 -0.953,-2.98 v -6.848 h -2.041 v 7.028 c 0,1.241 -0.305,2.188 -0.917,2.846 -0.613,0.656 -1.44,0.988 -2.484,0.988 -1.072,0 -1.927,-0.345 -2.561,-1.034 -0.635,-0.688 -0.952,-1.682 -0.952,-2.98 v -6.848 h -2.064 V 0.375 h 2.064 v -1.792 c 0.408,0.649 0.955,1.149 1.642,1.496 0.69,0.349 1.448,0.522 2.279,0.522 1.043,0 1.965,-0.235 2.767,-0.705 0.8,-0.466 1.4,-1.155 1.793,-2.061 0.345,0.878 0.92,1.558 1.72,2.04 0.803,0.484 1.694,0.726 2.676,0.726 0.967,0 1.83,-0.2 2.586,-0.601 z"
             style="fill:none;stroke:#01ff33;stroke-width:0.75;stroke-linecap:butt;stroke-linejoin:miter;stroke-miterlimit:10;stroke-dasharray:none;stroke-opacity:1"
             id="path294" />
        </g>
        <g
           id="g296"
           transform="translate(164.8311,39.9727)">
          <path
             d="m 0,0 c -0.35,0.565 -0.822,0.997 -1.418,1.291 -0.598,0.297 -1.258,0.443 -1.984,0.443 -1.043,0 -1.932,-0.333 -2.664,-0.998 -0.733,-0.664 -1.153,-1.588 -1.258,-2.765 H 0.52 C 0.52,-1.244 0.346,-0.568 0,0 m 2.584,-3.707 h -9.932 c 0.075,-1.224 0.496,-2.181 1.258,-2.867 0.764,-0.689 1.69,-1.032 2.777,-1.032 0.893,0 1.637,0.208 2.235,0.622 0.598,0.417 1.016,0.971 1.258,1.667 H 2.402 C 2.068,-6.51 1.404,-7.481 0.408,-8.229 -0.59,-8.978 -1.83,-9.353 -3.313,-9.353 c -1.177,0 -2.232,0.266 -3.162,0.794 -0.929,0.529 -1.658,1.281 -2.187,2.257 -0.531,0.974 -0.793,2.104 -0.793,3.389 0,1.283 0.256,2.41 0.769,3.378 0.516,0.967 1.237,1.711 2.165,2.232 0.929,0.523 2,0.783 3.208,0.783 1.18,0 2.223,-0.258 3.131,-0.772 0.905,-0.513 1.606,-1.219 2.096,-2.118 0.492,-0.9 0.738,-1.917 0.738,-3.051 0,-0.393 -0.023,-0.808 -0.068,-1.246"
             style="fill:#01ff33;fill-opacity:1;fill-rule:nonzero;stroke:none"
             id="path298" />
        </g>
        <g
           id="g300"
           transform="translate(164.8311,39.9727)">
          <path
             d="m 0,0 c -0.35,0.565 -0.822,0.997 -1.418,1.291 -0.598,0.297 -1.258,0.443 -1.984,0.443 -1.043,0 -1.932,-0.333 -2.664,-0.998 -0.733,-0.664 -1.153,-1.588 -1.258,-2.765 H 0.52 C 0.52,-1.244 0.346,-0.568 0,0 Z m 2.584,-3.707 h -9.932 c 0.075,-1.224 0.496,-2.181 1.258,-2.867 0.764,-0.689 1.69,-1.032 2.777,-1.032 0.893,0 1.637,0.208 2.235,0.622 0.598,0.417 1.016,0.971 1.258,1.667 H 2.402 C 2.068,-6.51 1.404,-7.481 0.408,-8.229 -0.59,-8.978 -1.83,-9.353 -3.313,-9.353 c -1.177,0 -2.232,0.266 -3.162,0.794 -0.929,0.529 -1.658,1.281 -2.187,2.257 -0.531,0.974 -0.793,2.104 -0.793,3.389 0,1.283 0.256,2.41 0.769,3.378 0.516,0.967 1.237,1.711 2.165,2.232 0.929,0.523 2,0.783 3.208,0.783 1.18,0 2.223,-0.258 3.131,-0.772 0.905,-0.513 1.606,-1.219 2.096,-2.118 0.492,-0.9 0.738,-1.917 0.738,-3.051 0,-0.393 -0.023,-0.808 -0.068,-1.246 z"
             style="fill:none;stroke:#01ff33;stroke-width:0.75;stroke-linecap:butt;stroke-linejoin:miter;stroke-miterlimit:10;stroke-dasharray:none;stroke-opacity:1"
             id="path302" />
        </g>
        <g
           id="g304"
           transform="translate(179.9287,42.1045)">
          <path
             d="m 0,0 c 0.937,-0.915 1.406,-2.233 1.406,-3.957 v -7.323 h -2.039 v 7.027 c 0,1.241 -0.312,2.189 -0.929,2.847 -0.622,0.656 -1.467,0.987 -2.542,0.987 -1.087,0 -1.953,-0.343 -2.593,-1.022 -0.645,-0.68 -0.965,-1.669 -0.965,-2.97 V -11.28 H -9.727 V 1.145 h 2.065 v -1.77 c 0.408,0.636 0.965,1.127 1.666,1.474 C -5.293,1.197 -4.52,1.37 -3.674,1.37 -2.162,1.37 -0.936,0.914 0,0"
             style="fill:#01ff33;fill-opacity:1;fill-rule:nonzero;stroke:none"
             id="path306" />
        </g>
        <g
           id="g308"
           transform="translate(179.9287,42.1045)">
          <path
             d="m 0,0 c 0.937,-0.915 1.406,-2.233 1.406,-3.957 v -7.323 h -2.039 v 7.027 c 0,1.241 -0.312,2.189 -0.929,2.847 -0.622,0.656 -1.467,0.987 -2.542,0.987 -1.087,0 -1.953,-0.343 -2.593,-1.022 -0.645,-0.68 -0.965,-1.669 -0.965,-2.97 V -11.28 H -9.727 V 1.145 h 2.065 v -1.77 c 0.408,0.636 0.965,1.127 1.666,1.474 C -5.293,1.197 -4.52,1.37 -3.674,1.37 -2.162,1.37 -0.936,0.914 0,0 Z"
             style="fill:none;stroke:#01ff33;stroke-width:0.75;stroke-linecap:butt;stroke-linejoin:miter;stroke-miterlimit:10;stroke-dasharray:none;stroke-opacity:1"
             id="path310" />
        </g>
        <g
           id="g312"
           transform="translate(187.2314,41.5488)">
          <path
             d="m 0,0 v -7.323 c 0,-0.606 0.127,-1.033 0.383,-1.281 0.258,-0.25 0.705,-0.375 1.338,-0.375 h 1.521 v -1.746 H 1.381 c -1.149,0 -2.008,0.265 -2.584,0.794 -0.574,0.529 -0.861,1.397 -0.861,2.608 V 0 h -1.61 v 1.7 h 1.61 V 4.828 H 0 V 1.7 H 3.242 V 0 Z"
             style="fill:#01ff33;fill-opacity:1;fill-rule:nonzero;stroke:none"
             id="path314" />
        </g>
        <g
           id="g316"
           transform="translate(187.2314,41.5488)">
          <path
             d="m 0,0 v -7.323 c 0,-0.606 0.127,-1.033 0.383,-1.281 0.258,-0.25 0.705,-0.375 1.338,-0.375 h 1.521 v -1.746 H 1.381 c -1.149,0 -2.008,0.265 -2.584,0.794 -0.574,0.529 -0.861,1.397 -0.861,2.608 V 0 h -1.61 v 1.7 h 1.61 V 4.828 H 0 V 1.7 H 3.242 V 0 Z"
             style="fill:none;stroke:#01ff33;stroke-width:0.75;stroke-linecap:butt;stroke-linejoin:miter;stroke-miterlimit:10;stroke-dasharray:none;stroke-opacity:1"
             id="path318" />
        </g>
        <g
           id="g320"
           transform="translate(200.4717,32.9561)">
          <path
             d="m 0,0 c 0.65,0.347 1.174,0.868 1.576,1.563 0.401,0.696 0.6,1.542 0.6,2.541 0,0.996 -0.197,1.842 -0.59,2.537 C 1.193,7.336 0.68,7.854 0.045,8.194 -0.59,8.536 -1.277,8.705 -2.018,8.705 -2.773,8.705 -3.465,8.536 -4.092,8.194 -4.719,7.854 -5.225,7.336 -5.602,6.641 -5.979,5.946 -6.166,5.1 -6.166,4.104 c 0,-1.014 0.184,-1.867 0.555,-2.562 0.369,-0.695 0.865,-1.213 1.484,-1.554 0.621,-0.34 1.301,-0.51 2.041,-0.51 0.74,0 1.436,0.173 2.086,0.522 m -5.248,-1.542 c -0.945,0.528 -1.688,1.28 -2.223,2.257 -0.537,0.973 -0.806,2.103 -0.806,3.389 0,1.269 0.277,2.39 0.83,3.366 0.551,0.974 1.302,1.722 2.254,2.244 0.955,0.522 2.017,0.783 3.197,0.783 1.182,0 2.244,-0.261 3.199,-0.783 C 2.154,9.192 2.904,8.448 3.457,7.481 4.008,6.514 4.285,5.387 4.285,4.104 4.285,2.818 4.002,1.688 3.436,0.715 2.867,-0.262 2.1,-1.014 1.135,-1.542 0.166,-2.07 -0.908,-2.336 -2.086,-2.336 c -1.164,0 -2.219,0.266 -3.162,0.794"
             style="fill:#01ff33;fill-opacity:1;fill-rule:nonzero;stroke:none"
             id="path322" />
        </g>
        <g
           id="g324"
           transform="translate(200.4717,32.9561)">
          <path
             d="m 0,0 c 0.65,0.347 1.174,0.868 1.576,1.563 0.401,0.696 0.6,1.542 0.6,2.541 0,0.996 -0.197,1.842 -0.59,2.537 C 1.193,7.336 0.68,7.854 0.045,8.194 -0.59,8.536 -1.277,8.705 -2.018,8.705 -2.773,8.705 -3.465,8.536 -4.092,8.194 -4.719,7.854 -5.225,7.336 -5.602,6.641 -5.979,5.946 -6.166,5.1 -6.166,4.104 c 0,-1.014 0.184,-1.867 0.555,-2.562 0.369,-0.695 0.865,-1.213 1.484,-1.554 0.621,-0.34 1.301,-0.51 2.041,-0.51 0.74,0 1.436,0.173 2.086,0.522 z m -5.248,-1.542 c -0.945,0.528 -1.688,1.28 -2.223,2.257 -0.537,0.973 -0.806,2.103 -0.806,3.389 0,1.269 0.277,2.39 0.83,3.366 0.551,0.974 1.302,1.722 2.254,2.244 0.955,0.522 2.017,0.783 3.197,0.783 1.182,0 2.244,-0.261 3.199,-0.783 C 2.154,9.192 2.904,8.448 3.457,7.481 4.008,6.514 4.285,5.387 4.285,4.104 4.285,2.818 4.002,1.688 3.436,0.715 2.867,-0.262 2.1,-1.014 1.135,-1.542 0.166,-2.07 -0.908,-2.336 -2.086,-2.336 c -1.164,0 -2.219,0.266 -3.162,0.794 z"
             style="fill:none;stroke:#01ff33;stroke-width:0.75;stroke-linecap:butt;stroke-linejoin:miter;stroke-miterlimit:10;stroke-dasharray:none;stroke-opacity:1"
             id="path326" />
        </g>
        <g
           id="g328"
           transform="translate(211.0947,42.8848)">
          <path
             d="M 0,0 C 0.672,0.395 1.492,0.59 2.459,0.59 V -1.542 H 1.916 c -2.312,0 -3.471,-1.254 -3.471,-3.764 v -6.755 H -3.617 V 0.364 h 2.062 V -1.653 C -1.191,-0.943 -0.674,-0.393 0,0"
             style="fill:#01ff33;fill-opacity:1;fill-rule:nonzero;stroke:none"
             id="path330" />
        </g>
        <g
           id="g332"
           transform="translate(211.0947,42.8848)">
          <path
             d="M 0,0 C 0.672,0.395 1.492,0.59 2.459,0.59 V -1.542 H 1.916 c -2.312,0 -3.471,-1.254 -3.471,-3.764 v -6.755 H -3.617 V 0.364 h 2.062 V -1.653 C -1.191,-0.943 -0.674,-0.393 0,0 Z"
             style="fill:none;stroke:#01ff33;stroke-width:0.75;stroke-linecap:butt;stroke-linejoin:miter;stroke-miterlimit:10;stroke-dasharray:none;stroke-opacity:1"
             id="path334" />
        </g>
        <g
           id="g336"
           transform="translate(233.46,42.874)">
          <path
             d="M 0,0 C 0.756,-0.399 1.354,-1 1.793,-1.803 2.23,-2.604 2.447,-3.577 2.447,-4.727 V -12.05 H 0.408 v 7.028 c 0,1.241 -0.304,2.188 -0.918,2.846 -0.611,0.656 -1.439,0.988 -2.482,0.988 -1.074,0 -1.928,-0.345 -2.563,-1.034 -0.634,-0.688 -0.953,-1.682 -0.953,-2.98 v -6.848 h -2.039 v 7.028 c 0,1.241 -0.305,2.188 -0.92,2.846 -0.611,0.656 -1.437,0.988 -2.482,0.988 -1.072,0 -1.926,-0.345 -2.563,-1.034 -0.633,-0.688 -0.951,-1.682 -0.951,-2.98 v -6.848 h -2.062 V 0.375 h 2.062 v -1.792 c 0.408,0.649 0.957,1.149 1.645,1.496 0.687,0.349 1.447,0.522 2.279,0.522 1.041,0 1.965,-0.235 2.766,-0.705 0.8,-0.466 1.396,-1.155 1.789,-2.061 0.349,0.878 0.923,1.558 1.724,2.04 0.801,0.484 1.694,0.726 2.676,0.726 0.967,0 1.828,-0.2 2.584,-0.601"
             style="fill:#01ff33;fill-opacity:1;fill-rule:nonzero;stroke:none"
             id="path338" />
        </g>
        <g
           id="g340"
           transform="translate(233.46,42.874)">
          <path
             d="M 0,0 C 0.756,-0.399 1.354,-1 1.793,-1.803 2.23,-2.604 2.447,-3.577 2.447,-4.727 V -12.05 H 0.408 v 7.028 c 0,1.241 -0.304,2.188 -0.918,2.846 -0.611,0.656 -1.439,0.988 -2.482,0.988 -1.074,0 -1.928,-0.345 -2.563,-1.034 -0.634,-0.688 -0.953,-1.682 -0.953,-2.98 v -6.848 h -2.039 v 7.028 c 0,1.241 -0.305,2.188 -0.92,2.846 -0.611,0.656 -1.437,0.988 -2.482,0.988 -1.072,0 -1.926,-0.345 -2.563,-1.034 -0.633,-0.688 -0.951,-1.682 -0.951,-2.98 v -6.848 h -2.062 V 0.375 h 2.062 v -1.792 c 0.408,0.649 0.957,1.149 1.645,1.496 0.687,0.349 1.447,0.522 2.279,0.522 1.041,0 1.965,-0.235 2.766,-0.705 0.8,-0.466 1.396,-1.155 1.789,-2.061 0.349,0.878 0.923,1.558 1.724,2.04 0.801,0.484 1.694,0.726 2.676,0.726 0.967,0 1.828,-0.2 2.584,-0.601 z"
             style="fill:none;stroke:#01ff33;stroke-width:0.75;stroke-linecap:butt;stroke-linejoin:miter;stroke-miterlimit:10;stroke-dasharray:none;stroke-opacity:1"
             id="path342" />
        </g>
        <g
           id="g344"
           transform="translate(248.4717,39.5068)">
          <path
             d="m 0,0 c -0.381,0.695 -0.891,1.229 -1.531,1.6 -0.643,0.37 -1.35,0.554 -2.121,0.554 -0.77,0 -1.475,-0.181 -2.108,-0.544 -0.635,-0.362 -1.142,-0.892 -1.519,-1.588 -0.379,-0.695 -0.567,-1.511 -0.567,-2.448 0,-0.951 0.188,-1.778 0.567,-2.482 0.377,-0.702 0.884,-1.239 1.519,-1.611 0.633,-0.37 1.338,-0.554 2.108,-0.554 0.771,0 1.478,0.184 2.121,0.554 0.64,0.372 1.15,0.909 1.531,1.611 0.377,0.704 0.564,1.522 0.564,2.461 C 0.564,-1.511 0.377,-0.695 0,0 m -9.184,0.919 c 0.514,0.959 1.219,1.705 2.12,2.233 0.898,0.529 1.9,0.794 3.005,0.794 1.086,0 2.032,-0.234 2.832,-0.704 C -0.426,2.775 0.172,2.185 0.564,1.475 V 3.742 H 2.65 V -8.683 H 0.564 v 2.314 c -0.406,-0.726 -1.017,-1.327 -1.824,-1.803 -0.808,-0.475 -1.75,-0.715 -2.822,-0.715 -1.105,0 -2.102,0.272 -2.994,0.816 -0.891,0.544 -1.594,1.307 -2.108,2.29 -0.513,0.982 -0.771,2.101 -0.771,3.355 0,1.271 0.258,2.385 0.771,3.345"
             style="fill:#01ff33;fill-opacity:1;fill-rule:nonzero;stroke:none"
             id="path346" />
        </g>
        <g
           id="g348"
           transform="translate(248.4717,39.5068)">
          <path
             d="m 0,0 c -0.381,0.695 -0.891,1.229 -1.531,1.6 -0.643,0.37 -1.35,0.554 -2.121,0.554 -0.77,0 -1.475,-0.181 -2.108,-0.544 -0.635,-0.362 -1.142,-0.892 -1.519,-1.588 -0.379,-0.695 -0.567,-1.511 -0.567,-2.448 0,-0.951 0.188,-1.778 0.567,-2.482 0.377,-0.702 0.884,-1.239 1.519,-1.611 0.633,-0.37 1.338,-0.554 2.108,-0.554 0.771,0 1.478,0.184 2.121,0.554 0.64,0.372 1.15,0.909 1.531,1.611 0.377,0.704 0.564,1.522 0.564,2.461 C 0.564,-1.511 0.377,-0.695 0,0 Z m -9.184,0.919 c 0.514,0.959 1.219,1.705 2.12,2.233 0.898,0.529 1.9,0.794 3.005,0.794 1.086,0 2.032,-0.234 2.832,-0.704 C -0.426,2.775 0.172,2.185 0.564,1.475 V 3.742 H 2.65 V -8.683 H 0.564 v 2.314 c -0.406,-0.726 -1.017,-1.327 -1.824,-1.803 -0.808,-0.475 -1.75,-0.715 -2.822,-0.715 -1.105,0 -2.102,0.272 -2.994,0.816 -0.891,0.544 -1.594,1.307 -2.108,2.29 -0.513,0.982 -0.771,2.101 -0.771,3.355 0,1.271 0.258,2.385 0.771,3.345 z"
             style="fill:none;stroke:#01ff33;stroke-width:0.75;stroke-linecap:butt;stroke-linejoin:miter;stroke-miterlimit:10;stroke-dasharray:none;stroke-opacity:1"
             id="path350" />
        </g>
        <g
           id="g352"
           transform="translate(257.1299,41.5488)">
          <path
             d="m 0,0 v -7.323 c 0,-0.606 0.131,-1.033 0.387,-1.281 0.256,-0.25 0.703,-0.375 1.338,-0.375 h 1.519 v -1.746 H 1.385 c -1.151,0 -2.012,0.265 -2.586,0.794 -0.574,0.529 -0.86,1.397 -0.86,2.608 V 0 h -1.611 v 1.7 h 1.611 V 4.828 H 0 V 1.7 H 3.244 V 0 Z"
             style="fill:#01ff33;fill-opacity:1;fill-rule:nonzero;stroke:none"
             id="path354" />
        </g>
        <g
           id="g356"
           transform="translate(257.1299,41.5488)">
          <path
             d="m 0,0 v -7.323 c 0,-0.606 0.131,-1.033 0.387,-1.281 0.256,-0.25 0.703,-0.375 1.338,-0.375 h 1.519 v -1.746 H 1.385 c -1.151,0 -2.012,0.265 -2.586,0.794 -0.574,0.529 -0.86,1.397 -0.86,2.608 V 0 h -1.611 v 1.7 h 1.611 V 4.828 H 0 V 1.7 H 3.244 V 0 Z"
             style="fill:none;stroke:#01ff33;stroke-width:0.75;stroke-linecap:butt;stroke-linejoin:miter;stroke-miterlimit:10;stroke-dasharray:none;stroke-opacity:1"
             id="path358" />
        </g>
        <g
           id="g360"
           transform="translate(271.5518,39.9727)">
          <path
             d="m 0,0 c -0.35,0.565 -0.82,0.997 -1.418,1.291 -0.596,0.297 -1.258,0.443 -1.984,0.443 -1.041,0 -1.93,-0.333 -2.662,-0.998 -0.735,-0.664 -1.155,-1.588 -1.26,-2.765 H 0.521 C 0.521,-1.244 0.346,-0.568 0,0 m 2.584,-3.707 h -9.93 c 0.075,-1.224 0.494,-2.181 1.256,-2.867 0.764,-0.689 1.692,-1.032 2.779,-1.032 0.891,0 1.637,0.208 2.235,0.622 0.596,0.417 1.014,0.971 1.258,1.667 H 2.404 C 2.07,-6.51 1.406,-7.481 0.408,-8.229 -0.59,-8.978 -1.83,-9.353 -3.311,-9.353 c -1.179,0 -2.234,0.266 -3.162,0.794 -0.929,0.529 -1.66,1.281 -2.189,2.257 -0.527,0.974 -0.793,2.104 -0.793,3.389 0,1.283 0.256,2.41 0.771,3.378 0.514,0.967 1.235,1.711 2.164,2.232 0.932,0.523 1.999,0.783 3.209,0.783 1.178,0 2.223,-0.258 3.129,-0.772 0.909,-0.513 1.606,-1.219 2.096,-2.118 0.492,-0.9 0.74,-1.917 0.74,-3.051 0,-0.393 -0.025,-0.808 -0.07,-1.246"
             style="fill:#01ff33;fill-opacity:1;fill-rule:nonzero;stroke:none"
             id="path362" />
        </g>
        <g
           id="g364"
           transform="translate(271.5518,39.9727)">
          <path
             d="m 0,0 c -0.35,0.565 -0.82,0.997 -1.418,1.291 -0.596,0.297 -1.258,0.443 -1.984,0.443 -1.041,0 -1.93,-0.333 -2.662,-0.998 -0.735,-0.664 -1.155,-1.588 -1.26,-2.765 H 0.521 C 0.521,-1.244 0.346,-0.568 0,0 Z m 2.584,-3.707 h -9.93 c 0.075,-1.224 0.494,-2.181 1.256,-2.867 0.764,-0.689 1.692,-1.032 2.779,-1.032 0.891,0 1.637,0.208 2.235,0.622 0.596,0.417 1.014,0.971 1.258,1.667 H 2.404 C 2.07,-6.51 1.406,-7.481 0.408,-8.229 -0.59,-8.978 -1.83,-9.353 -3.311,-9.353 c -1.179,0 -2.234,0.266 -3.162,0.794 -0.929,0.529 -1.66,1.281 -2.189,2.257 -0.527,0.974 -0.793,2.104 -0.793,3.389 0,1.283 0.256,2.41 0.771,3.378 0.514,0.967 1.235,1.711 2.164,2.232 0.932,0.523 1.999,0.783 3.209,0.783 1.178,0 2.223,-0.258 3.129,-0.772 0.909,-0.513 1.606,-1.219 2.096,-2.118 0.492,-0.9 0.74,-1.917 0.74,-3.051 0,-0.393 -0.025,-0.808 -0.07,-1.246 z"
             style="fill:none;stroke:#01ff33;stroke-width:0.75;stroke-linecap:butt;stroke-linejoin:miter;stroke-miterlimit:10;stroke-dasharray:none;stroke-opacity:1"
             id="path366" />
        </g>
      </g>
    </g>
  </g>
</svg>
