<?xml version="1.0" encoding="utf-8"?>
<!-- Generator: Adobe Illustrator 16.0.0, SVG Export Plug-In . SVG Version: 6.00 Build 0)  -->
<!DOCTYPE svg PUBLIC "-//W3C//DTD SVG 1.1//EN" "http://www.w3.org/Graphics/SVG/1.1/DTD/svg11.dtd">
<svg version="1.1" id="Capa_1" xmlns="http://www.w3.org/2000/svg" xmlns:xlink="http://www.w3.org/1999/xlink" x="0px" y="0px"
	 width="141.73px" height="141.73px" viewBox="0 0 141.73 141.73" enable-background="new 0 0 141.73 141.73" xml:space="preserve">
<path fill-rule="evenodd" clip-rule="evenodd" stroke="#000000" stroke-width="2" stroke-miterlimit="10" d="M123.19,73.404
	c0,28.234-22.893,51.129-51.13,51.129c-28.24,0-51.13-22.895-51.13-51.129c0-28.241,22.89-51.134,51.13-51.134
	C100.298,22.271,123.19,45.163,123.19,73.404z"/>
<g>
	<linearGradient id="SVGID_1_" gradientUnits="userSpaceOnUse" x1="43.4731" y1="86.4639" x2="100.5898" y2="86.4639">
		<stop  offset="0" style="stop-color:#FFEF26"/>
		<stop  offset="0.0047" style="stop-color:#FBEF26"/>
		<stop  offset="0.0569" style="stop-color:#D7F328"/>
		<stop  offset="0.1139" style="stop-color:#B8F62A"/>
		<stop  offset="0.1785" style="stop-color:#9CF92B"/>
		<stop  offset="0.2515" style="stop-color:#86FB2C"/>
		<stop  offset="0.3366" style="stop-color:#75FD2D"/>
		<stop  offset="0.442" style="stop-color:#6AFE2E"/>
		<stop  offset="0.5898" style="stop-color:#63FF2E"/>
		<stop  offset="1" style="stop-color:#61FF2E"/>
	</linearGradient>
	<path fill-rule="evenodd" clip-rule="evenodd" fill="url(#SVGID_1_)" d="M43.476,77.395c-0.014-2.719,0.902-4.91,2.859-6.679
		c1.071-0.97,2.06-2.037,3.093-3.047c0.991-0.97,1.356-0.989,2.457-0.181c0.081,0.061,0.159,0.117,0.239,0.176
		c1.926,1.463,1.962,2.103,0.247,3.807c-0.981,0.971-2.02,1.888-2.883,2.976c-1.714,2.159-1.673,4.022,0.25,5.968
		c3.586,3.625,7.212,7.217,10.831,10.809c2.686,2.67,5.384,5.318,8.078,7.982c0.281,0.277,0.556,0.559,0.841,0.834
		c1.88,1.799,3.349,1.832,5.215,0.006c2.449-2.387,4.851-4.83,7.269-7.252c3.699-3.701,7.396-7.402,11.089-11.115
		c0.578-0.578,1.151-1.176,1.658-1.82c1.33-1.695,1.335-3.324,0.061-5.064c-1.034-1.418-2.391-2.538-3.593-3.801
		c-1.146-1.193-1.157-1.575,0.003-2.774c1.903-1.97,2.153-1.978,4.092-0.09c1.034,1.01,2.073,2.023,2.996,3.14
		c3.249,3.957,3.076,8.84-0.515,12.484c-3.839,3.889-7.733,7.717-11.582,11.598c-2.6,2.615-5.161,5.26-7.733,7.9
		c-1.62,1.658-3.521,2.762-5.867,2.93c-2.604,0.188-4.733-0.852-6.549-2.654c-5.142-5.096-10.291-10.188-15.435-15.281
		c-1.473-1.459-2.964-2.898-4.406-4.389C44.425,82.033,43.413,79.879,43.476,77.395z"/>
	<linearGradient id="SVGID_2_" gradientUnits="userSpaceOnUse" x1="87.166" y1="82.0625" x2="118.8623" y2="82.0625">
		<stop  offset="0.0052" style="stop-color:#739FE3"/>
		<stop  offset="0.0921" style="stop-color:#5F8FE3"/>
		<stop  offset="0.2636" style="stop-color:#3D74E3"/>
		<stop  offset="0.4389" style="stop-color:#225EE3"/>
		<stop  offset="0.617" style="stop-color:#0F4FE3"/>
		<stop  offset="0.8" style="stop-color:#0446E3"/>
		<stop  offset="0.9948" style="stop-color:#0043E3"/>
	</linearGradient>
	<path fill-rule="evenodd" clip-rule="evenodd" fill="url(#SVGID_2_)" d="M118.79,81.291c0,0.268-0.043,0.555-0.163,0.806
		c-0.131,0.47-0.231,0.808-0.424,1.175c-0.72,2.069-2.071,3.711-3.599,5.238c-4.254,4.26-8.495,8.543-12.781,12.771
		c-2.671,2.641-5.814,3.568-9.394,2.041c-2.085-0.881-3.509-2.627-4.978-4.256c-0.264-0.281-0.306-0.648-0.279-1.031
		c0.059-0.807,1.983-2.758,2.804-2.828c0.69-0.047,1.088,0.426,1.439,0.908c0.704,0.928,1.438,1.791,2.437,2.424
		c1.629,1.012,2.817,0.922,4.153-0.414c4.727-4.727,9.452-9.455,14.162-14.191c2.088-2.114,2.159-4.346,0.134-6.547
		c-3.596-3.935-7.352-7.708-11.315-11.272c-0.014-0.016-0.014-0.016-0.014-0.016c-0.883-2.801-0.589-4.771-0.074-6.032
		c0.293,0.117,0.57,0.264,0.866,0.411c1.173,0.603,2.153,1.482,3.097,2.42c3.392,3.391,6.795,6.797,10.199,10.176
		c1.514,1.482,2.687,3.14,3.244,5.206l0.41,1.455C118.806,80.281,118.952,80.676,118.79,81.291z"/>
	<linearGradient id="SVGID_3_" gradientUnits="userSpaceOnUse" x1="41.7178" y1="49.5352" x2="57.7017" y2="49.5352">
		<stop  offset="0" style="stop-color:#FFEF26"/>
		<stop  offset="0.0178" style="stop-color:#FFEA21"/>
		<stop  offset="0.102" style="stop-color:#FED70F"/>
		<stop  offset="0.1886" style="stop-color:#FDCC04"/>
		<stop  offset="0.2809" style="stop-color:#FDC800"/>
		<stop  offset="0.6685" style="stop-color:#F18F34"/>
		<stop  offset="0.8876" style="stop-color:#E95F32"/>
		<stop  offset="1" style="stop-color:#E3312D"/>
	</linearGradient>
	<path fill-rule="evenodd" clip-rule="evenodd" fill="url(#SVGID_3_)" d="M49.688,41.543c-4.462,0-7.955,3.495-7.97,7.938
		c-0.015,4.478,3.597,8.101,8,8.045c4.402-0.043,7.983-3.639,7.983-8.016C57.702,45.125,54.105,41.543,49.688,41.543z
		 M49.718,52.709c-1.865,0.016-3.26-1.375-3.245-3.228c0.016-1.757,1.439-3.167,3.214-3.167c1.776,0,3.2,1.421,3.2,3.196
		C52.888,51.318,51.507,52.709,49.718,52.709z"/>
	<path fill-rule="evenodd" clip-rule="evenodd" fill="#00FF33" d="M71.688,32.354c-4.798,0-8.57,3.756-8.585,8.557
		c-0.016,4.814,3.875,8.704,8.614,8.661c4.742-0.061,8.588-3.918,8.602-8.645C80.319,36.217,76.431,32.354,71.688,32.354z
		 M71.718,44.39c-1.995,0-3.507-1.496-3.491-3.479c0.015-1.908,1.557-3.435,3.462-3.418c1.909,0,3.437,1.542,3.437,3.451
		C75.125,42.878,73.656,44.376,71.718,44.39z"/>
	<linearGradient id="SVGID_4_" gradientUnits="userSpaceOnUse" x1="86.0586" y1="49.5439" x2="102.0547" y2="49.5439">
		<stop  offset="0" style="stop-color:#0063E4"/>
		<stop  offset="0.9948" style="stop-color:#0063E3"/>
	</linearGradient>
	<path fill-rule="evenodd" clip-rule="evenodd" fill="url(#SVGID_4_)" d="M94.058,41.543c-4.417,0.016-7.999,3.583-7.999,7.968
		c0,4.377,3.642,8.034,7.986,8.034c4.446,0,8.026-3.615,8.01-8.063C102.044,45.048,98.504,41.527,94.058,41.543z M94.116,52.709
		c-1.82,0.035-3.286-1.408-3.286-3.199c0-1.728,1.437-3.186,3.198-3.196c1.805-0.029,3.287,1.421,3.273,3.212
		C97.302,51.275,95.879,52.699,94.116,52.709z"/>
	<path fill-rule="evenodd" clip-rule="evenodd" fill="#00FF33" d="M36.129,59.408"/>
	<path fill="none" d="M78.28,58.115c-1.747-1.732-3.86-2.585-6.297-2.631c-2.349-0.011-4.403,0.738-6.076,2.396
		c-2.012,1.994-3.993,4.022-6.019,5.987c-0.543,0.528-0.484,0.85,0.029,1.365c3.23,3.169,6.429,6.397,9.659,9.584
		c1.818,1.775,2.89,1.775,4.711,0c3.257-3.187,6.5-6.415,9.773-9.6c0.499-0.499,0.603-0.805,0.046-1.349
		C82.14,61.975,80.218,60.04,78.28,58.115z"/>
	<path fill="#00FF33" d="M55.839,60.888c-0.07,2.172,0.423,5.219,2.353,9.153c-1.045-3.524-0.843-8.199-0.654-10.468
		c-0.245,0.24-0.484,0.485-0.731,0.728C56.483,60.607,56.176,60.829,55.839,60.888z"/>
	<linearGradient id="SVGID_5_" gradientUnits="userSpaceOnUse" x1="25.2422" y1="70.3223" x2="58.4638" y2="70.3223">
		<stop  offset="0.0105" style="stop-color:#FFFFFF"/>
		<stop  offset="0.0405" style="stop-color:#FFFAE7"/>
		<stop  offset="0.1065" style="stop-color:#FFF1B7"/>
		<stop  offset="0.178" style="stop-color:#FFE88B"/>
		<stop  offset="0.2534" style="stop-color:#FFE066"/>
		<stop  offset="0.3338" style="stop-color:#FFDA46"/>
		<stop  offset="0.4207" style="stop-color:#FFD52C"/>
		<stop  offset="0.5166" style="stop-color:#FFD119"/>
		<stop  offset="0.6263" style="stop-color:#FFCE0B"/>
		<stop  offset="0.7617" style="stop-color:#FFCC02"/>
		<stop  offset="1" style="stop-color:#FFCC00"/>
	</linearGradient>
	<path fill="url(#SVGID_5_)" d="M58.322,70.46c0.048,0.048,0.095,0.096,0.142,0.144c-0.099-0.191-0.179-0.373-0.272-0.563
		C58.235,70.183,58.275,70.321,58.322,70.46z"/>
	<path opacity="0.4" d="M55.839,60.888c-0.28,0.072-0.603,0.013-0.956-0.219c-1.073-0.696-2.197-1.157-3.356-1.447
		c-0.211,1.914,2.58,6.133,5.103,9.545c0.563,0.565,1.13,1.125,1.693,1.693c-0.047-0.139-0.087-0.277-0.131-0.419
		C56.262,66.107,55.769,63.06,55.839,60.888z"/>
	<linearGradient id="SVGID_6_" gradientUnits="userSpaceOnUse" x1="55.8325" y1="65.793" x2="100.9727" y2="65.793">
		<stop  offset="0" style="stop-color:#FFEF26"/>
		<stop  offset="0.0047" style="stop-color:#FBEF26"/>
		<stop  offset="0.0569" style="stop-color:#D7F328"/>
		<stop  offset="0.1139" style="stop-color:#B8F62A"/>
		<stop  offset="0.1785" style="stop-color:#9CF92B"/>
		<stop  offset="0.2515" style="stop-color:#86FB2C"/>
		<stop  offset="0.3366" style="stop-color:#75FD2D"/>
		<stop  offset="0.442" style="stop-color:#6AFE2E"/>
		<stop  offset="0.5898" style="stop-color:#63FF2E"/>
		<stop  offset="1" style="stop-color:#61FF2E"/>
	</linearGradient>
	<path fill="url(#SVGID_6_)" d="M100.898,60.066c-3.772-1.719-7.59-1.807-11.361,0.411c-1.247,0.733-1.336,0.794-2.349-0.309
		c-1.85-2.01-3.801-3.932-5.856-5.737c-4.784-4.211-12.108-5.771-18.361-0.234c-1.913,1.703-3.636,3.577-5.433,5.376
		c-0.245,0.24-0.484,0.485-0.731,0.728c-0.323,0.306-0.63,0.528-0.967,0.586c-0.07,2.172,0.423,5.219,2.353,9.153
		c0.093,0.189,0.174,0.371,0.272,0.563c1.411,1.398,2.79,2.806,4.198,4.199c1.454,1.439,2.862,2.92,4.403,4.258
		c3.171,2.729,7.238,2.465,10.201-0.473c4.212-4.154,8.456-8.291,12.724-12.401c3.289-3.156,7.312-3.388,10.465-0.557
		c0.179,0.157,0.342,0.306,0.518,0.469C100.09,63.297,100.384,61.327,100.898,60.066z M84.062,65.216
		c-3.273,3.186-6.517,6.414-9.773,9.6c-1.821,1.775-2.893,1.775-4.711,0c-3.23-3.187-6.429-6.415-9.659-9.584
		c-0.514-0.515-0.572-0.837-0.029-1.365c2.025-1.964,4.007-3.993,6.019-5.987c1.673-1.658,3.728-2.407,6.076-2.396
		c2.437,0.045,4.55,0.898,6.297,2.631c1.938,1.925,3.859,3.86,5.827,5.752C84.664,64.412,84.561,64.718,84.062,65.216z"/>
	<linearGradient id="SVGID_7_" gradientUnits="userSpaceOnUse" x1="25.2588" y1="81.4707" x2="59.9862" y2="81.4707">
		<stop  offset="0" style="stop-color:#FFEF26"/>
		<stop  offset="0.0178" style="stop-color:#FFEA21"/>
		<stop  offset="0.102" style="stop-color:#FED70F"/>
		<stop  offset="0.1886" style="stop-color:#FDCC04"/>
		<stop  offset="0.2809" style="stop-color:#FDC800"/>
		<stop  offset="0.6685" style="stop-color:#F18F34"/>
		<stop  offset="0.8876" style="stop-color:#E95F32"/>
		<stop  offset="1" style="stop-color:#E3312D"/>
	</linearGradient>
	<path fill="url(#SVGID_7_)" d="M56.629,68.767c-0.756-0.757-1.512-1.517-2.274-2.274c-2.129-2.098-4.61-3.268-7.677-2.58
		c-1.468,0.32-2.671,1.127-3.713,2.159c-3.655,3.593-7.295,7.22-10.921,10.875c-2.304,2.318-2.435,4.667-0.174,7.013
		c3.917,4.097,7.953,8.062,11.962,12.067c0.806,0.82,1.568,1.688,2.494,2.391c1.41,1.072,2.658,1.088,4.008-0.072
		c0.895-0.775,1.718-1.641,2.583-2.451c0.852-0.811,1.438-0.811,2.333-0.059c2.098,1.762,2.113,2.16,0.323,4.24
		c-1.231,1.441-2.568,2.732-4.39,3.422c-3.066,1.145-5.841,0.584-8.262-1.557c-3.317-2.918-6.267-6.207-9.394-9.32
		c-1.658-1.643-3.273-3.33-4.917-4.988c-1.261-1.247-2.201-2.703-2.819-4.361c-0.205-0.437-0.264-0.748-0.411-1.381
		c0-0.188-0.073-0.332-0.073-0.527c0-0.615-0.102-1.01-0.013-1.76c0-0.205,0.086-0.469,0.086-0.663
		c0.104-0.47,0.235-0.806,0.397-1.188c0.601-1.791,1.703-3.242,3.038-4.551c3.86-3.773,7.691-7.556,11.507-11.375
		c1.791-1.786,3.993-2.58,6.443-2.863c1.648-0.187,3.237-0.12,4.76,0.259C51.315,61.135,54.106,65.355,56.629,68.767z
		 M55.839,60.888c-0.28,0.072-0.603,0.013-0.956-0.219c-1.073-0.696-2.197-1.157-3.356-1.447c-0.211,1.914,2.58,6.133,5.103,9.545
		c0.563,0.565,1.13,1.125,1.693,1.693c-0.047-0.139-0.087-0.277-0.131-0.419C56.262,66.107,55.769,63.06,55.839,60.888z"/>
</g>
</svg>
